<svg width="72" height="72" viewBox="0 0 72 72" fill="none" xmlns="http://www.w3.org/2000/svg">
<path fill-rule="evenodd" clip-rule="evenodd" d="M17.7293 51.2551C24.9676 51.0065 54.6672 50.2879 59.7829 48.1892C65.9033 45.6783 63.0557 27.4345 62.1886 20.6417C61.8427 17.9311 60.5076 14.4629 57.8673 13.1098C53.2721 10.7547 15.0442 13.4629 11.54 14.8085C6.20346 16.8579 7.7496 23.8373 7.88361 27.4488C8.07563 32.6257 8.34364 37.8182 8.69743 42.9871C8.87237 45.5437 8.83446 48.1475 10.9186 49.9499C12.8036 51.5801 15.4666 51.3329 17.7293 51.2551Z" fill="white" stroke="black" stroke-width="1.48537" stroke-miterlimit="1.5" stroke-linecap="round" stroke-linejoin="round"/>
<path d="M29.5074 50.8622C33.7176 50.7036 38.4343 50.4969 42.8945 50.2272C43.4994 52.7495 43.6322 55.5025 43.7378 57.6928C43.7565 58.0793 43.7743 58.4483 43.7937 58.7953C41.8382 58.9184 39.3559 59.0383 36.7365 59.1648C34.2711 59.2839 31.6842 59.4088 29.3005 59.5478V58.783C29.2983 58.4535 29.2918 58.0836 29.2848 57.6815C29.2525 55.8314 29.2084 53.2979 29.5074 50.8622Z" fill="white"/>
<path d="M29.5074 50.8622C33.7176 50.7036 38.4343 50.4969 42.8945 50.2272C43.4994 52.7495 43.6322 55.5025 43.7378 57.6928C43.7565 58.0793 43.7743 58.4483 43.7937 58.7953C41.8382 58.9184 39.3559 59.0383 36.7365 59.1648C34.2711 59.2839 31.6842 59.4088 29.3005 59.5478V58.783C29.2983 58.4535 29.2918 58.0836 29.2848 57.6815C29.2525 55.8314 29.2084 53.2979 29.5074 50.8622Z" stroke="black" stroke-width="1.48537" stroke-miterlimit="1.5" stroke-linecap="round" stroke-linejoin="round"/>
<path d="M23.1719 59.9517C25.1522 59.7757 27.2061 59.6295 29.2948 59.502M52.3212 58.2767C49.674 58.4842 46.7864 58.6432 43.7815 58.7884" stroke="black" stroke-width="1.48537" stroke-miterlimit="1.5" stroke-linecap="round" stroke-linejoin="round"/>
<path d="M18.918 35.334C22.3301 32.1616 25.0031 28.1334 28.635 25.1726C30.3221 27.1378 32.293 28.8728 33.7888 31.0072C35.9249 29.9769 45.2438 21.3756 47.3635 19.274" stroke="black" stroke-width="1.48537" stroke-miterlimit="1.5" stroke-linecap="round" stroke-linejoin="round"/>
<path d="M21.7891 38.6876C21.8643 40.0759 21.873 41.4704 21.9913 42.8557" stroke="black" stroke-width="1.48537" stroke-miterlimit="1.5" stroke-linecap="round" stroke-linejoin="round"/>
<path d="M27.6154 34.1302C27.5848 36.9544 27.8955 39.761 28.1482 42.5679" stroke="black" stroke-width="1.48537" stroke-miterlimit="1.5" stroke-linecap="round" stroke-linejoin="round"/>
<path d="M33.8672 37.1717C33.9743 38.9903 34.1667 40.8291 34.3635 42.6422" stroke="black" stroke-width="1.48537" stroke-miterlimit="1.5" stroke-linecap="round" stroke-linejoin="round"/>
<path d="M40.7969 33.3779C41.3281 36.1898 41.3035 39.0537 41.6662 41.8766" stroke="black" stroke-width="1.48537" stroke-miterlimit="1.5" stroke-linecap="round" stroke-linejoin="round"/>
<path d="M47.9418 41.6584C47.5629 39.7547 47.7384 37.6645 47.625 35.7345C47.4389 32.5616 46.9688 29.3372 47.0149 26.1608" stroke="black" stroke-width="1.48537" stroke-miterlimit="1.5" stroke-linecap="round" stroke-linejoin="round"/>
</svg>
