<svg width="72" height="72" viewBox="0 0 72 72" fill="none" xmlns="http://www.w3.org/2000/svg">
<path fill-rule="evenodd" clip-rule="evenodd" d="M32.6018 41.5665C30.9885 40.4092 29.1889 39.4236 27.4955 38.3918C26.4628 37.7625 25.4772 36.7106 24.3819 36.1921C20.2539 43.4636 16.0352 50.7391 12.6172 58.3477C15.1742 57.4341 18.3422 56.2594 20.5435 54.7359C21.0537 57.5229 22.1312 60.1462 22.8066 62.8792C25.5599 55.4147 29.9459 48.6114 32.8029 41.1885" fill="white"/>
<path d="M32.6018 41.5665C30.9885 40.4092 29.1889 39.4236 27.4955 38.3918C26.4628 37.7625 25.4772 36.7106 24.3819 36.1921C20.2539 43.4636 16.0352 50.7391 12.6172 58.3477C15.1742 57.4341 18.3422 56.2594 20.5435 54.7359C21.0537 57.5229 22.1312 60.1462 22.8066 62.8792C25.5599 55.4147 29.9459 48.6114 32.8029 41.1885" stroke="black" stroke-width="1.48537" stroke-miterlimit="1.5" stroke-linecap="round" stroke-linejoin="round"/>
<path fill-rule="evenodd" clip-rule="evenodd" d="M46.7628 37.6444C44.7451 38.9296 41.452 40.9129 39.3164 42.0058C40.3583 45.6352 46.3354 59.3931 48.0402 62.3358C48.6101 59.2899 49.1715 56.1952 49.8309 53.1661C52.8425 54.6939 55.5094 55.825 58.7547 57.8594C58.0349 56.3803 48.9679 41.0549 46.7628 37.6444Z" fill="white" stroke="black" stroke-width="1.48537" stroke-miterlimit="1.5" stroke-linecap="round" stroke-linejoin="round"/>
<path fill-rule="evenodd" clip-rule="evenodd" d="M45.2072 13.801C43.9293 13.7343 42.6246 14.1864 41.7493 15.1791C42.5259 13.3383 40.9187 10.8106 39.3499 9.95048C36.6208 8.45398 32.1141 10.4105 31.7979 13.5913C29.2825 8.83512 22.3328 11.1325 22.6188 16.4115C22.1921 16.1454 21.7784 15.9789 21.2955 15.8159C16.8497 14.3147 14.161 20.8682 17.0806 23.839C13.2337 24.9262 11.7567 31.5798 16.048 33.1177C11.4913 35.579 14.4705 44.2523 19.8195 42.5179C19.4649 44.0219 19.3906 45.8747 20.2368 47.2395C21.6097 49.4537 25.1484 50.4685 27.2883 48.6646C27.2527 53.2551 34.1291 53.9273 36.0148 50.2769C39.2081 54.3433 45.3385 52.7755 45.7882 47.4515C46.8526 47.8301 48.0616 48.1572 49.1869 47.8705C52.6836 46.979 54.2387 42.7732 52.4644 39.8088C56.5662 39.2086 59.0541 32.0549 53.16 29.4465C55.3256 27.6632 55.6333 24.6194 53.683 21.8697C52.6536 20.4181 50.268 20.1234 48.8416 20.3607C49.4722 18.7656 49.5325 16.9842 48.5049 15.5361" fill="white"/>
<path d="M45.2072 13.801C43.9293 13.7343 42.6246 14.1864 41.7493 15.1791C42.5259 13.3383 40.9187 10.8106 39.3499 9.95048C36.6208 8.45398 32.1141 10.4105 31.7979 13.5913C29.2825 8.83512 22.3328 11.1325 22.6188 16.4115C22.1921 16.1454 21.7784 15.9789 21.2955 15.8159C16.8497 14.3147 14.161 20.8682 17.0806 23.839C13.2337 24.9262 11.7567 31.5798 16.048 33.1177C11.4913 35.579 14.4705 44.2523 19.8195 42.5179C19.4649 44.0219 19.3906 45.8747 20.2368 47.2395C21.6097 49.4537 25.1484 50.4685 27.2883 48.6646C27.2527 53.2551 34.1291 53.9273 36.0148 50.2769C39.2081 54.3433 45.3385 52.7755 45.7882 47.4515C46.8526 47.8301 48.0616 48.1572 49.1869 47.8705C52.6836 46.979 54.2387 42.7732 52.4644 39.8088C56.5662 39.2086 59.0541 32.0549 53.16 29.4465C55.3256 27.6632 55.6333 24.6194 53.683 21.8697C52.6536 20.4181 50.268 20.1234 48.8416 20.3607C49.4722 18.7656 49.5325 16.9842 48.5049 15.5361" stroke="black" stroke-width="1.48537" stroke-miterlimit="1.5" stroke-linecap="round" stroke-linejoin="round"/>
<path d="M38.5857 17.7982C32.2558 14.8484 23.5196 18.9032 21.2443 25.4802C18.5817 33.1772 20.5072 41.1985 28.4057 44.9115C34.2444 47.6561 41.7471 46.7436 46.3289 42.0779C53.3399 34.9383 50.9552 23.7057 42.4721 19.513" stroke="black" stroke-width="1.48537" stroke-miterlimit="1.5" stroke-linecap="round" stroke-linejoin="round"/>
<path d="M30.5 28.6314C32.3765 27.19 34.0731 25.5781 34.9601 23.5549" stroke="black" stroke-width="1.48537" stroke-miterlimit="1.5" stroke-linecap="round" stroke-linejoin="round"/>
<path fill-rule="evenodd" clip-rule="evenodd" d="M35.0786 23.8025C34.9405 28.33 35.3093 32.8645 35.1265 37.3868L35.0786 23.8025Z" fill="white"/>
<path d="M35.0786 23.8025C34.9405 28.33 35.3093 32.8645 35.1265 37.3868" stroke="black" stroke-width="1.48537" stroke-miterlimit="1.5" stroke-linecap="round" stroke-linejoin="round"/>
<path fill-rule="evenodd" clip-rule="evenodd" d="M30.1758 37.7676C33.5516 37.3634 37.023 37.6526 40.3708 37.2209L30.1758 37.7676Z" fill="white"/>
<path d="M30.1758 37.7676C33.5516 37.3634 37.023 37.6526 40.3708 37.2209" stroke="black" stroke-width="1.48537" stroke-miterlimit="1.5" stroke-linecap="round" stroke-linejoin="round"/>
</svg>
