<svg width="100" height="101" viewBox="0 0 100 101" fill="none" xmlns="http://www.w3.org/2000/svg">
<g opacity="0.5">
<path d="M48.268 7.5C49.0378 6.16667 50.9622 6.16667 51.732 7.5L88.1051 70.5C88.8749 71.8333 87.9127 73.5 86.3731 73.5H13.6269C12.0873 73.5 11.1251 71.8333 11.8949 70.5L48.268 7.5Z" stroke="#1B086A" stroke-width="4"/>
<path d="M53.48 35.42L52.68 54.58H46.88L46.08 35.42H53.48ZM49.88 64.82C48.68 64.82 47.6933 64.4733 46.92 63.78C46.1733 63.06 45.8 62.18 45.8 61.14C45.8 60.0733 46.1733 59.18 46.92 58.46C47.6933 57.74 48.68 57.38 49.88 57.38C51.0533 57.38 52.0133 57.74 52.76 58.46C53.5333 59.18 53.92 60.0733 53.92 61.14C53.92 62.18 53.5333 63.06 52.76 63.78C52.0133 64.4733 51.0533 64.82 49.88 64.82Z" fill="#1B086A"/>
</g>
</svg>
