<svg width="73" height="73" viewBox="0 0 73 73" fill="none" xmlns="http://www.w3.org/2000/svg">
<path fill-rule="evenodd" clip-rule="evenodd" d="M33.2818 54.8042C44.4701 56.5146 45.9496 51.961 47.1899 44.8939C48.7583 35.9572 42.9322 20.296 32.5908 19.3475C26.0146 18.7442 24.2688 26.0893 20.3197 30.1361C14.6904 35.9046 10.6679 38.517 3.94529 42.7718C-0.80878 45.7806 1.96185 54.698 7.02138 57.0851C9.77061 58.3822 13.1205 56.8786 15.8598 56.3619C21.6091 55.2774 27.4071 53.9063 33.2818 54.8042V54.8042Z" stroke="#FE66C4" stroke-width="1.48537" stroke-miterlimit="1.5" stroke-linecap="round" stroke-linejoin="round"/>
<path d="M44.9858 42.3459C44.6404 34.7885 41.2885 23.5937 32.5733 22.0916C27.6662 21.5845 26.0348 28.7097 25.8191 32.3834C25.3703 40.026 29.9677 51.1427 38.663 52.1287C43.8207 52.7137 45.1612 46.1844 44.9858 42.3459Z" stroke="#FE66C4" stroke-width="1.48537" stroke-miterlimit="1.5" stroke-linecap="round" stroke-linejoin="round"/>
<path fill-rule="evenodd" clip-rule="evenodd" d="M35.219 33.502C33.3756 34.3405 34.354 37.6013 35.1107 39.5693C35.4417 40.4302 36.6533 42.1088 37.4247 41.7752C39.8373 40.7318 37.331 32.8425 35.219 33.502Z" stroke="#FE66C4" stroke-width="1.48537" stroke-miterlimit="1.5" stroke-linecap="round" stroke-linejoin="round"/>
<path d="M18.2526 55.9034C14.4316 53.8461 11.7027 48.2418 10.5761 44.3246C10.0632 42.5414 9.77529 40.5617 10.1783 38.7249" stroke="#FE66C4" stroke-width="1.48537" stroke-miterlimit="1.5" stroke-linecap="round" stroke-linejoin="round"/>
<path d="M4.79297 48.7874C5.03566 50.1093 5.53201 51.413 6.39613 52.4532" stroke="#FE66C4" stroke-width="1.48537" stroke-miterlimit="1.5" stroke-linecap="round" stroke-linejoin="round"/>
<path d="M7.59766 47.1931C7.92805 48.6048 8.56114 49.8835 9.54808 50.9508" stroke="#FE66C4" stroke-width="1.48537" stroke-miterlimit="1.5" stroke-linecap="round" stroke-linejoin="round"/>
<path d="M21.0994 55.3713C19.9271 55.5504 18.5214 55.8424 17.1914 56.1019C17.74 57.1871 18.4957 58.5315 19.3258 59.4319C19.6819 59.8179 20.0596 60.22 20.5845 60.3621C20.7931 60.4186 21.0217 60.4224 21.2362 60.4044C21.8726 60.3508 23.4702 60.1609 23.5314 59.2892C23.571 58.7229 23.1279 58.149 22.809 57.7226C22.2333 56.9525 21.6905 56.1572 21.1572 55.3574" stroke="#FE66C4" stroke-width="1.48537" stroke-miterlimit="1.5" stroke-linecap="round" stroke-linejoin="round"/>
<path d="M48.6986 52.9344C51.8183 53.8017 54.9647 54.5868 58.0544 55.5649C57.1054 53.8356 56.684 51.5211 56.096 49.659C59.8672 49.2426 63.7202 48.8638 67.4528 48.2189C65.1123 46.066 62.9973 43.1937 61.0941 40.6884C64.6869 39.6902 68.2197 38.4423 71.7357 37.2078C68.1537 34.7569 64.5828 32.1735 60.8401 29.9835C63.3059 26.6209 65.6025 23.1211 68.2015 19.8611C63.8588 19.8228 59.5146 19.5596 55.1722 19.5506C56.3926 15.9605 57.9668 12.4561 59.309 8.91019C54.4858 10.4122 49.8438 12.4122 44.967 13.7692C44.8853 10.8647 44.8823 7.95981 44.6372 5.06299C42.1845 7.46863 39.7631 9.88938 37.1656 12.1408C36.4963 10.5306 35.8139 8.93336 35.0732 7.35403C34.1469 9.827 33.4626 12.3814 32.793 14.9336" stroke="#FE66C4" stroke-width="1.48537" stroke-miterlimit="1.5" stroke-linecap="round" stroke-linejoin="round"/>
<path d="M17.1914 56.1032C17.7399 57.1881 18.4953 58.5317 19.3251 59.4318C19.6811 59.8178 20.0589 60.2198 20.5837 60.362C20.7923 60.4185 21.021 60.4223 21.2354 60.4042C21.6961 60.3654 22.6605 60.2552 23.1811 59.8666C23.4401 60.1384 23.7265 60.4226 24.023 60.7168C25.3611 62.0444 26.9055 63.5768 27.0615 65.1001C27.1768 66.2246 26.1559 67.1765 25.2142 67.6109C23.1734 68.5526 21.0982 68.3144 19.209 67.1372C15.883 65.065 14.0246 61.1022 12.6365 57.6069C12.6323 57.5964 12.6276 57.5848 12.6227 57.5724C12.5796 57.4646 12.512 57.2952 12.4805 57.1823C13.8736 56.7801 15.6428 56.4068 17.1914 56.1032Z" stroke="#FE66C4" stroke-width="1.48537" stroke-miterlimit="1.5" stroke-linecap="round" stroke-linejoin="round"/>
<path d="M35.1795 33.52C33.3906 34.3875 34.3602 37.6149 35.1113 39.5685C35.4203 40.372 36.4963 41.8878 37.2656 41.8151C37.2682 41.8218 37.2709 41.8285 37.2735 41.8351C35.6637 42.6709 34.3752 43.4717 33.1396 44.2395C32.0292 44.9295 30.9616 45.593 29.7419 46.2315C28.5849 44.642 27.3621 41.8512 27.1078 40.9871C27.0546 40.8062 27.0024 40.6308 26.9513 40.4592C26.5466 39.0996 26.2102 37.9697 25.9522 36.081C27.1288 35.7355 28.3799 35.4129 29.6441 35.087C31.5282 34.6012 33.4413 34.1079 35.1795 33.52Z" stroke="#FE66C4" stroke-width="1.48537" stroke-miterlimit="1.5" stroke-linecap="round" stroke-linejoin="round"/>
</svg>
