<svg width="100" height="105" viewBox="0 0 100 105" fill="none" xmlns="http://www.w3.org/2000/svg">
<path fill-rule="evenodd" clip-rule="evenodd" d="M38.8554 43.5577C43.1236 54.5386 47.1695 65.0159 51.8631 75.8182C54.1019 80.9706 57.064 86.5594 59.5572 91.5998C63.5205 85.9263 64.8119 82.3302 68.8261 76.7118C68.8274 76.7095 80.0124 86.3498 88.2317 92.9665C84.2933 79.0403 73.1048 63.155 66.4499 54.746C63.7884 58.8082 61.1334 62.9996 58.8221 67.2734C52.0755 59.4571 45.5018 51.452 38.8554 43.5577Z" stroke="#FFD600" stroke-width="2.93433" stroke-miterlimit="1.5" stroke-linecap="round" stroke-linejoin="round"/>
<path d="M14.5273 52.9709C15.7487 52.2091 17.0015 51.4891 18.2072 50.7032" stroke="#FFD600" stroke-width="2.93433" stroke-miterlimit="1.5" stroke-linecap="round" stroke-linejoin="round"/>
<path d="M10.5742 33.3645C12.1047 33.8297 13.667 34.1745 15.203 34.617" stroke="#FFD600" stroke-width="2.93433" stroke-miterlimit="1.5" stroke-linecap="round" stroke-linejoin="round"/>
<path d="M24.8615 21.8376C24.079 19.8042 23.0926 17.8568 22.3053 15.8261" stroke="#FFD600" stroke-width="2.93433" stroke-miterlimit="1.5" stroke-linecap="round" stroke-linejoin="round"/>
<path d="M44.4947 16.3252C45.0052 14.2296 45.5568 12.1048 45.8784 9.96988" stroke="#FFD600" stroke-width="2.93433" stroke-miterlimit="1.5" stroke-linecap="round" stroke-linejoin="round"/>
</svg>
