<svg width="72" height="72" viewBox="0 0 72 72" fill="none" xmlns="http://www.w3.org/2000/svg">
<path d="M18.2695 37.2371C18.6529 36.9421 19.002 36.6575 19.3012 36.4135C19.4181 36.3183 19.5273 36.2293 19.628 36.1482C23.0208 33.4171 26.1324 30.3952 29.2446 27.3727C31.5605 25.1235 33.8768 22.874 36.3094 20.7439C38.2954 22.695 40.2971 24.6258 42.2984 26.5562C45.6676 29.806 49.0359 33.0549 52.3265 36.3986C52.4258 36.4995 52.5428 36.6223 52.6754 36.7613C52.783 36.8743 52.9008 36.9979 53.0277 37.1292C53.6185 44.1784 53.9247 50.7685 54.0898 57.7283C53.1108 57.7516 51.9476 57.7593 50.726 57.7675C48.3651 57.7832 45.7861 57.8004 43.8981 57.9337C43.8956 57.2068 43.9165 56.4314 43.9382 55.6282C44.0364 51.9897 44.15 47.7796 42.1673 44.9177C39.083 40.4654 31.7397 42.6132 29.6262 46.9251C28.2076 49.8194 28.7234 53.7551 29.1556 57.0521C29.2259 57.5888 29.294 58.1085 29.3512 58.6041C28.0325 58.7096 26.7127 58.7335 25.394 58.7574C23.3122 58.7952 21.2331 58.8329 19.1653 59.1914C18.7886 51.8728 18.4414 44.5613 18.2695 37.2371Z" fill="white" stroke="black" stroke-width="1.48537" stroke-miterlimit="1.5" stroke-linecap="round" stroke-linejoin="round"/>
<path d="M29.3497 58.602C31.2766 58.5045 33.208 58.4309 35.142 58.3573C38.0592 58.2463 40.9821 58.1351 43.9039 57.941C43.9045 57.938 43.9051 57.9351 43.9057 57.9322C43.9027 57.9324 43.8997 57.9326 43.8967 57.9328C43.8942 57.206 43.9151 56.4307 43.9368 55.6276C44.035 51.989 44.1486 47.7788 42.1658 44.9168C39.0816 40.4645 31.7383 42.6123 29.6248 46.9242C28.2061 49.8186 28.722 53.7543 29.1541 57.0513C29.2244 57.5875 29.2925 58.1068 29.3497 58.602Z" fill="white" stroke="black" stroke-width="1.48537" stroke-miterlimit="1.5" stroke-linecap="round" stroke-linejoin="round"/>
<path fill-rule="evenodd" clip-rule="evenodd" d="M39.9743 13.6207C38.1866 12.6222 36.057 13.0786 34.5318 14.2538C27.7701 19.4639 20.5393 24.8221 14.7033 31.0955C13.1429 32.7728 9.44892 36.8254 12.1164 38.9209C14.3493 40.6751 18.0396 37.4242 19.6258 36.1474C25.5432 31.3841 30.6056 25.7358 36.3072 20.7432C41.6365 25.979 47.0789 31.068 52.3242 36.3979C53.5034 37.5959 57.1901 41.8907 59.5501 39.7272C62.2619 37.2412 60.2212 34.3666 58.9139 32.7786C54.0334 26.8512 45.3406 19.076 39.9743 13.6207Z" fill="white" stroke="black" stroke-width="1.48537" stroke-miterlimit="1.5" stroke-linecap="round" stroke-linejoin="round"/>
<path fill-rule="evenodd" clip-rule="evenodd" d="M38.8371 31.2768C35.3994 27.5095 30.1917 32.626 33.2749 35.7909C34.3735 36.9185 36.251 37.328 37.6553 36.5439C39.3936 35.5729 40.2856 32.8641 38.8371 31.2768Z" fill="white" stroke="black" stroke-width="1.48537" stroke-miterlimit="1.5" stroke-linecap="round" stroke-linejoin="round"/>
</svg>
