<svg width="21" height="21" viewBox="0 0 21 21" fill="none" xmlns="http://www.w3.org/2000/svg">
<circle cx="10.4375" cy="10.3535" r="10" fill="white"/>
<rect x="2.9375" y="2.85352" width="15" height="15" rx="4.28571" fill="url(#paint0_radial_54_2483)"/>
<rect x="2.9375" y="2.85352" width="15" height="15" rx="4.28571" fill="url(#paint1_radial_54_2483)"/>
<rect x="2.9375" y="2.85352" width="15" height="15" rx="4.28571" fill="url(#paint2_radial_54_2483)"/>
<path d="M14.1892 7.4073C14.1892 7.8511 13.8294 8.21087 13.3856 8.21087C12.9418 8.21087 12.582 7.8511 12.582 7.4073C12.582 6.9635 12.9418 6.60372 13.3856 6.60372C13.8294 6.60372 14.1892 6.9635 14.1892 7.4073Z" fill="white"/>
<path fill-rule="evenodd" clip-rule="evenodd" d="M10.4392 13.0323C11.9185 13.0323 13.1177 11.8331 13.1177 10.3537C13.1177 8.87439 11.9185 7.67515 10.4392 7.67515C8.95984 7.67515 7.7606 8.87439 7.7606 10.3537C7.7606 11.8331 8.95984 13.0323 10.4392 13.0323ZM10.4392 11.9609C11.3268 11.9609 12.0463 11.2413 12.0463 10.3537C12.0463 9.46612 11.3268 8.74658 10.4392 8.74658C9.55157 8.74658 8.83203 9.46612 8.83203 10.3537C8.83203 11.2413 9.55157 11.9609 10.4392 11.9609Z" fill="white"/>
<path fill-rule="evenodd" clip-rule="evenodd" d="M5.08203 10.1394C5.08203 8.33927 5.08203 7.43919 5.43237 6.75161C5.74053 6.14681 6.23225 5.65508 6.83706 5.34692C7.52464 4.99658 8.42472 4.99658 10.2249 4.99658H10.6535C12.4536 4.99658 13.3537 4.99658 14.0413 5.34692C14.6461 5.65508 15.1378 6.14681 15.446 6.75161C15.7963 7.43919 15.7963 8.33927 15.7963 10.1394V10.568C15.7963 12.3682 15.7963 13.2683 15.446 13.9558C15.1378 14.5606 14.6461 15.0524 14.0413 15.3605C13.3537 15.7109 12.4536 15.7109 10.6535 15.7109H10.2249C8.42472 15.7109 7.52464 15.7109 6.83706 15.3605C6.23225 15.0524 5.74053 14.5606 5.43237 13.9558C5.08203 13.2683 5.08203 12.3682 5.08203 10.568V10.1394ZM10.2249 6.06801H10.6535C11.5712 6.06801 12.1951 6.06884 12.6773 6.10824C13.1471 6.14662 13.3873 6.21619 13.5549 6.30157C13.9581 6.50701 14.2859 6.83483 14.4913 7.23803C14.5767 7.4056 14.6463 7.64582 14.6847 8.11555C14.7241 8.59779 14.7249 9.22168 14.7249 10.1394V10.568C14.7249 11.4858 14.7241 12.1097 14.6847 12.5919C14.6463 13.0616 14.5767 13.3018 14.4913 13.4694C14.2859 13.8726 13.9581 14.2004 13.5549 14.4059C13.3873 14.4913 13.1471 14.5608 12.6773 14.5992C12.1951 14.6386 11.5712 14.6394 10.6535 14.6394H10.2249C9.30712 14.6394 8.68324 14.6386 8.201 14.5992C7.73127 14.5608 7.49105 14.4913 7.32348 14.4059C6.92028 14.2004 6.59246 13.8726 6.38702 13.4694C6.30164 13.3018 6.23207 13.0616 6.19369 12.5919C6.15429 12.1097 6.15346 11.4858 6.15346 10.568V10.1394C6.15346 9.22168 6.15429 8.59779 6.19369 8.11555C6.23207 7.64582 6.30164 7.4056 6.38702 7.23803C6.59246 6.83483 6.92028 6.50701 7.32348 6.30157C7.49105 6.21619 7.73127 6.14662 8.201 6.10824C8.68324 6.06884 9.30712 6.06801 10.2249 6.06801Z" fill="white"/>
<defs>
<radialGradient id="paint0_radial_54_2483" cx="0" cy="0" r="1" gradientUnits="userSpaceOnUse" gradientTransform="translate(8.29464 14.1035) rotate(-55.3758) scale(13.6712)">
<stop stop-color="#B13589"/>
<stop offset="0.79309" stop-color="#C62F94"/>
<stop offset="1" stop-color="#8A3AC8"/>
</radialGradient>
<radialGradient id="paint1_radial_54_2483" cx="0" cy="0" r="1" gradientUnits="userSpaceOnUse" gradientTransform="translate(7.75893 18.3892) rotate(-65.1363) scale(12.1041)">
<stop stop-color="#E0E8B7"/>
<stop offset="0.444662" stop-color="#FB8A2E"/>
<stop offset="0.71474" stop-color="#E2425C"/>
<stop offset="1" stop-color="#E2425C" stop-opacity="0"/>
</radialGradient>
<radialGradient id="paint2_radial_54_2483" cx="0" cy="0" r="1" gradientUnits="userSpaceOnUse" gradientTransform="translate(2.13393 3.38923) rotate(-8.1301) scale(20.8344 4.45626)">
<stop offset="0.156701" stop-color="#406ADC"/>
<stop offset="0.467799" stop-color="#6A45BE"/>
<stop offset="1" stop-color="#6A45BE" stop-opacity="0"/>
</radialGradient>
</defs>
</svg>
