<svg width="72" height="72" viewBox="0 0 72 72" fill="none" xmlns="http://www.w3.org/2000/svg">
<path fill-rule="evenodd" clip-rule="evenodd" d="M53.5474 15.5451C42.4198 6.83736 25.8896 8.46151 16.5254 17.9772C6.87931 27.7797 5.88955 46.8374 17.6373 56.1813C24.4291 61.5832 35.9473 64.6859 44.559 62.1548C60.6126 57.4368 68.9878 37.8342 60.0071 22.5331" fill="white"/>
<path d="M53.5474 15.5451C42.4198 6.83736 25.8896 8.46151 16.5254 17.9772C6.87931 27.7797 5.88955 46.8374 17.6373 56.1813C24.4291 61.5832 35.9473 64.6859 44.559 62.1548C60.6126 57.4368 68.9878 37.8342 60.0071 22.5331" stroke="black" stroke-width="2.13444" stroke-miterlimit="1.5" stroke-linecap="round" stroke-linejoin="round"/>
<path d="M40.9674 25.7237C37.858 25.412 34.4351 25.383 31.8372 27.3531C29.7291 28.9516 28.6584 31.8622 31.0451 33.8043C34.5024 36.6178 40.1626 34.8299 43.3012 38.3018C45.4678 40.6981 43.7363 43.9659 41.3559 45.3755C39.5125 46.4671 37.2753 46.5864 35.199 46.2881C32.9834 45.97 30.7399 45.7218 28.5352 45.3401" stroke="black" stroke-width="2.13444" stroke-miterlimit="1.5" stroke-linecap="round" stroke-linejoin="round"/>
<path d="M36.0664 25.7221C36.1001 24.4288 36.1836 23.1452 36.1397 21.8507" stroke="black" stroke-width="2.13444" stroke-miterlimit="1.5" stroke-linecap="round" stroke-linejoin="round"/>
<path d="M35.8555 46.3499C35.8943 47.5731 35.9343 48.7949 36.0018 50.0168" stroke="black" stroke-width="2.13444" stroke-miterlimit="1.5" stroke-linecap="round" stroke-linejoin="round"/>
</svg>
