<svg width="72" height="72" viewBox="0 0 72 72" fill="none" xmlns="http://www.w3.org/2000/svg">
<path fill-rule="evenodd" clip-rule="evenodd" d="M36.4737 58.6411C39.6111 54.9809 38.0512 49.0902 34.4271 47.2783C27.4915 43.8104 19.1301 43.5105 12.2754 39.9028C10.8952 39.1764 9.24862 37.987 8.68989 36.4702C7.98594 34.5597 9.02817 30.8379 11.3042 30.6481C11.3042 30.639 10.7622 29.9393 10.648 29.224C10.5078 28.2057 10.5898 27.1189 11.0055 26.1743C11.8512 24.252 15.9461 22.0552 17.8193 23.9284C17.8245 23.9337 17.8622 23.2377 17.8664 23.1946C17.9172 22.6879 18.0906 22.181 18.2876 21.7145C18.883 20.3041 19.8123 18.9916 21.0182 18.0395C23.5092 16.0732 29.0297 15.3049 30.7671 18.7796C30.7671 18.7796 31.4015 17.2104 31.9638 16.6366C33.0723 15.5055 34.5489 14.6194 36.047 14.11C40.12 12.7253 44.8287 14.6291 45.4001 19.2013C45.4001 19.2013 46.0497 18.8374 46.1075 18.8057C46.5686 18.5532 47.0409 18.3108 47.5239 18.1038C48.9024 17.5129 50.6037 17.0763 52.0794 17.5423C56.0104 18.7838 58.1835 23.1201 56.1499 26.7809C56.1499 26.7809 57.1849 26.9455 57.6851 27.0965C58.6693 27.3936 59.4831 27.9466 60.1733 28.7044C61.9598 30.665 62.3322 33.8938 60.0712 35.633C60.0712 35.633 60.5089 35.7972 61.0332 36.2692C61.6843 36.8553 62.2304 37.5924 62.5472 38.4139C63.5057 40.8989 62.2251 42.2236 60.6907 43.7581C60.6553 43.7401 60.9607 43.9935 61.0155 44.042C61.2756 44.272 61.5174 44.5522 61.6913 44.8531C62.1843 45.706 62.0824 46.8317 61.8266 47.7459C61.1087 50.3093 58.5958 52.2109 55.9329 51.3234C55.8144 51.7694 55.1986 52.7338 54.4555 53.2148C52.6907 54.3567 49.8116 54.3497 48.1474 53.0795C47.2633 52.405 46.7749 51.3951 45.9304 50.6914C46.2022 50.9389 46.0717 52.5729 46.0291 52.8334C45.7344 54.6347 44.4139 57.289 42.8929 58.4297L36.4737 58.6411Z" fill="white" stroke="black" stroke-width="1.48537" stroke-miterlimit="1.5" stroke-linecap="round" stroke-linejoin="round"/>
<path d="M18.6367 32.4449C18.642 32.4501 18.6539 32.4528 18.6597 32.4548C18.6245 32.8688 18.7222 30.8868 18.7696 30.6254C19.025 29.2224 19.6023 28.1379 20.9549 27.4699C23.8746 26.0278 27.4812 26.9697 27.773 30.4835C27.7755 30.5112 27.7182 29.743 27.7279 29.6289C27.7698 29.1446 27.8373 28.6601 27.9921 28.1965C28.54 26.5559 29.6877 25.3688 31.27 24.6071C34.9164 22.8519 38.7792 24.4986 38.7675 28.5915" stroke="black" stroke-width="1.48537" stroke-miterlimit="1.5" stroke-linecap="round" stroke-linejoin="round"/>
<path d="M44.0363 30.7521C43.748 30.7483 44.46 30.353 44.7197 30.2294C45.2087 29.9966 45.7256 29.8376 46.2636 29.7598C47.8672 29.5282 49.4786 29.9424 50.7616 30.9143C53.5933 33.0594 52.6763 36.2344 49.7119 37.6012C49.6495 37.63 50.2057 37.4066 50.2676 37.3986C50.7571 37.3367 51.285 37.3755 51.7643 37.4871C53.1612 37.8124 54.4328 38.826 55.2034 40.0022C57.0473 42.8171 54.8677 45.5549 51.8627 45.8894" stroke="black" stroke-width="1.48537" stroke-miterlimit="1.5" stroke-linecap="round" stroke-linejoin="round"/>
</svg>
