<svg width="21" height="21" viewBox="0 0 21 21" fill="none" xmlns="http://www.w3.org/2000/svg">
<circle cx="10.582" cy="10.3535" r="10" fill="white"/>
<rect x="3.08203" y="2.85352" width="15" height="15" rx="7.5" fill="#1275B1"/>
<path d="M8.77054 6.97438C8.77054 7.47503 8.33659 7.88089 7.80129 7.88089C7.26598 7.88089 6.83203 7.47503 6.83203 6.97438C6.83203 6.47373 7.26598 6.06787 7.80129 6.06787C8.33659 6.06787 8.77054 6.47373 8.77054 6.97438Z" fill="white"/>
<path d="M6.96458 8.54721H8.62143V13.5679H6.96458V8.54721Z" fill="white"/>
<path d="M11.289 8.54721H9.6321V13.5679H11.289C11.289 13.5679 11.289 11.9873 11.289 10.999C11.289 10.4059 11.4915 9.81012 12.2996 9.81012C13.2129 9.81012 13.2074 10.5864 13.2032 11.1877C13.1976 11.9738 13.2109 12.776 13.2109 13.5679H14.8677V10.9181C14.8537 9.22611 14.4128 8.44649 12.9624 8.44649C12.101 8.44649 11.5671 8.83755 11.289 9.19135V8.54721Z" fill="white"/>
</svg>
