<svg width="225" height="161" viewBox="0 0 225 161" fill="none" xmlns="http://www.w3.org/2000/svg">
<g clip-path="url(#clip0_54_2910)">
<path d="M95.707 62.7252C95.707 62.7252 97.0716 60.6853 97.9424 58.0762C98.8166 55.4706 99.8109 52.8444 101.803 51.2364C102.965 50.297 105.07 48.8159 106.335 47.5268C107.237 46.608 107.546 45.6652 107.546 45.6652C107.546 45.6652 108.865 45.5006 108.574 47.8594C108.283 50.2182 107.347 50.2182 106.335 51.3907C105.324 52.5632 104.532 54.1472 104.532 54.1472C104.532 54.1472 108.444 54.0306 110.453 52.7484C112.465 51.4627 113.1 50.585 114.046 48.6617C114.992 46.7383 116.024 45.2812 117.197 44.3864C118.369 43.4915 119.302 43.3167 119.291 43.8138C119.281 44.3109 118.29 44.6435 116.946 47.7908C115.733 50.6296 113.97 52.937 113.97 52.937C113.97 52.937 116.322 51.3907 117.365 49.0628C118.407 46.7349 119.49 44.6332 120.769 43.327C122.048 42.0242 123.19 42.439 122.545 43.2893C121.9 44.1395 120.855 45.5383 120.022 47.9965C118.623 52.1278 116.72 53.4992 116.72 53.4992C116.72 53.4992 118.818 52.5153 119.929 49.6971C121.036 46.8789 122.216 44.071 123.255 43.3407C124.294 42.6104 124.602 43.0527 123.748 44.7155C122.336 47.472 122.782 48.7371 121.839 50.849C120.81 53.1598 119.36 54.3083 119.36 54.3083C119.36 54.3083 120.735 54.1369 122.37 50.6536C123.344 48.5794 124.592 47.8114 124.986 48.2125C125.38 48.6137 123.769 50.7462 122.679 53.9072C121.588 57.0682 119.295 59.427 113.751 61.3367C108.207 63.2463 107.902 63.0441 105.55 64.9297C103.747 66.3765 102.835 67.7685 102.835 67.7685C99.7046 66.0577 95.707 62.7252 95.707 62.7252Z" fill="url(#paint0_linear_54_2910)"/>
<path d="M106.744 41.0402C106.936 41.3659 106.83 41.7876 106.501 41.9796L105.037 42.8436C104.927 42.9087 104.807 42.9396 104.691 42.9396C104.457 42.9396 104.228 42.8196 104.101 42.6036C103.909 42.2779 104.015 41.8562 104.344 41.6642L105.808 40.8002C106.131 40.6082 106.552 40.7145 106.744 41.0402ZM113.995 44.8389L110.649 44.8149H110.646C110.269 44.8149 109.964 45.1201 109.96 45.4972C109.957 45.8743 110.262 46.1863 110.642 46.1863L113.989 46.2103H113.992C114.369 46.2103 114.674 45.9052 114.678 45.528C114.678 45.1509 114.373 44.8424 113.995 44.8389ZM104.413 36.3843C104.67 36.3843 104.913 36.2403 105.033 35.9935C105.198 35.6507 105.051 35.2427 104.711 35.0781L103.182 34.3478C102.839 34.1867 102.431 34.3307 102.267 34.6701C102.102 35.013 102.25 35.4209 102.589 35.5855L104.118 36.3158C104.214 36.3603 104.314 36.3843 104.413 36.3843ZM115.854 30.964C116.039 30.964 116.224 30.8885 116.361 30.7411L117.544 29.4451C117.798 29.164 117.78 28.732 117.499 28.4749C117.218 28.2178 116.786 28.2383 116.529 28.5195L115.346 29.8154C115.093 30.0965 115.11 30.5285 115.391 30.7857C115.525 30.9057 115.689 30.964 115.854 30.964ZM108.339 30.3605C108.448 30.628 108.702 30.7891 108.973 30.7891C109.058 30.7891 109.144 30.772 109.23 30.7377C109.58 30.5937 109.751 30.196 109.607 29.8463L108.945 28.2178C108.801 27.868 108.404 27.6966 108.054 27.8406C107.704 27.9846 107.533 28.3823 107.677 28.732L108.339 30.3605ZM122.248 35.2324C122.159 34.8655 121.792 34.6393 121.422 34.725L119.776 35.1192C119.409 35.2084 119.179 35.5787 119.268 35.9455C119.344 36.2609 119.625 36.4735 119.934 36.4735C119.985 36.4735 120.04 36.4666 120.095 36.4529L121.74 36.0586C122.107 35.9729 122.333 35.6027 122.248 35.2324ZM120.602 40.6562L118.984 40.1385C118.62 40.0254 118.236 40.2242 118.123 40.5842C118.007 40.9442 118.206 41.3316 118.569 41.4448L120.187 41.9624C120.256 41.983 120.328 41.9967 120.396 41.9967C120.688 41.9967 120.955 41.8116 121.051 41.5202C121.164 41.1568 120.966 40.7728 120.602 40.6562ZM114.15 42.8127C114.136 42.8161 112.874 43.1041 110.368 42.8196C109.991 42.775 109.652 43.0458 109.61 43.423C109.569 43.8001 109.837 44.1395 110.214 44.1807C111.092 44.2801 111.832 44.3144 112.439 44.3144C113.755 44.3144 114.434 44.1532 114.475 44.143C114.842 44.0538 115.065 43.6835 114.976 43.3167C114.887 42.9498 114.517 42.727 114.15 42.8127ZM118.264 36.2061C117.331 29.7366 107.187 29.7914 106.264 36.2061C105.829 39.2403 108.788 40.6014 109.422 41.8082C109.422 41.8082 110.217 42.0379 111.746 42.0516L111.685 40.2311C111.685 40.2311 111.201 39.8128 110.618 39.5214C110.036 39.2265 109.658 38.8974 109.658 38.8974L109.648 37.8929C109.648 37.8929 109.295 37.862 109.093 37.7077C108.887 37.5534 108.825 37.3992 109.014 37.2895C109.076 37.2552 109.196 37.3135 109.336 37.3306C109.487 37.3512 109.662 37.3272 109.662 37.3272L109.645 36.7512C109.645 36.7512 109.638 36.4769 109.974 36.4632C110.31 36.4495 110.324 36.7306 110.324 36.7306L110.327 37.3409C110.327 37.3409 110.553 37.3717 110.735 37.1386C110.917 36.9055 110.927 36.7958 111.218 36.7786C111.575 36.758 111.873 37.2655 112.281 37.2655C112.693 37.2655 112.988 36.758 113.344 36.7786C113.635 36.7958 113.646 36.9055 113.827 37.1386C114.009 37.3717 114.235 37.3409 114.235 37.3409L114.239 36.7306C114.239 36.7306 114.253 36.4529 114.589 36.4632C114.925 36.4735 114.918 36.7512 114.918 36.7512L114.901 37.3272C114.901 37.3272 115.075 37.3477 115.226 37.3306C115.367 37.3135 115.487 37.2552 115.549 37.2895C115.737 37.3992 115.672 37.5534 115.47 37.7077C115.264 37.862 114.914 37.8929 114.914 37.8929L114.904 38.8974C114.904 38.8974 114.527 39.2265 113.944 39.5214C113.361 39.8162 112.878 40.2311 112.878 40.2311L112.816 42.0516C114.321 42.0344 115.103 41.8116 115.103 41.8116C115.741 40.6013 118.699 39.2403 118.264 36.2061ZM114.16 38.4174L114.17 37.8757C114.17 37.8757 113.879 37.9683 113.762 37.9134C113.546 37.8106 113.485 37.6597 113.485 37.6597C113.485 37.6597 113.279 37.8963 112.994 38.0609C112.737 38.2083 112.497 38.2357 112.278 38.2357C112.058 38.2357 111.818 38.2083 111.561 38.0609C111.277 37.8963 111.071 37.6597 111.071 37.6597C111.071 37.6597 111.009 37.814 110.793 37.9134C110.68 37.9683 110.385 37.8757 110.385 37.8757L110.396 38.4174C110.396 38.4174 111.609 38.7534 112.274 39.6688C112.95 38.7534 114.16 38.4174 114.16 38.4174Z" fill="url(#paint1_linear_54_2910)"/>
<path d="M118.443 80.0081C118.432 80.0081 118.426 80.0081 118.415 80.0081C109.093 79.7989 103.399 76.9807 103.162 76.8642C102.809 76.6859 102.565 76.343 102.511 75.9522L101.455 68.0187C99.1199 67.0039 91.4915 63.1812 88.0288 55.4294C85.67 50.1496 85.766 44.1841 88.3099 37.6974C91.3441 29.9628 97.3885 24.8716 105.336 23.363C113.015 21.9059 121.251 24.2339 125.828 29.1606C131.742 35.5238 131.632 41.887 131.553 46.5326C131.519 48.5108 131.491 50.2182 131.906 51.5004C132.921 54.6169 135.283 55.2271 136.696 55.5906C137.261 55.738 137.673 55.8443 138.002 56.1425C138.9 56.9688 138.9 58.1379 138.002 59.6156C137.381 60.6373 136.284 61.9744 134.769 63.8292L134.673 63.9491C133.864 64.9365 133.288 66.2051 132.674 67.549C131.419 70.3055 129.993 73.4323 126.164 74.1042C124.103 74.4642 121.539 73.5797 119.937 72.8871C119.845 73.494 119.749 74.262 119.673 75.1431C119.485 77.3167 119.639 78.6504 119.639 78.6641C119.68 79.0104 119.571 79.3566 119.337 79.6138C119.104 79.8641 118.782 80.0081 118.443 80.0081ZM104.804 74.9682C106.306 75.5991 110.742 77.2276 117.178 77.5601C117.167 76.8916 117.184 76.0002 117.277 74.9339C117.486 72.5306 117.843 70.9261 117.856 70.8575C117.939 70.4906 118.189 70.1821 118.532 70.0278C118.875 69.8735 119.269 69.8872 119.601 70.0655C120.668 70.6449 123.846 72.0712 125.742 71.742C128.327 71.2895 129.328 69.0953 130.483 66.5548C131.131 65.132 131.803 63.6577 132.808 62.4303L132.904 62.3103C134.406 60.4761 135.832 58.7345 136.188 57.9425C136.154 57.9322 136.12 57.9253 136.089 57.9151C134.58 57.5242 131.042 56.6088 129.619 52.2444C129.078 50.5816 129.109 48.6856 129.146 46.4914C129.222 42.0173 129.318 36.4495 124.062 30.7925C120.027 26.4487 112.679 24.4121 105.778 25.7218C98.6707 27.0692 93.2606 31.6325 90.5384 38.5717C88.2414 44.4275 88.1316 49.7656 90.2093 54.4317C93.8126 62.5263 102.877 66.0131 102.97 66.0474C103.385 66.2016 103.68 66.5753 103.738 67.0142L104.804 74.9682Z" fill="url(#paint2_linear_54_2910)"/>
<path d="M26.543 101.853V90.0028H33.4118V92.3701H29.1534V94.5483H33.2396V96.9223H29.1534V99.4855H33.4118V101.853H26.543ZM38.9096 101.853V90.0028H45.7819V92.3701H41.5235V94.7205H45.6063V97.0946H41.5235V101.853H38.9096ZM50.8745 101.853V90.0028H53.4883V101.853H50.8745ZM65.6794 101.853L61.914 96.1794V101.853H59.3001V90.0028H61.914V95.3216L65.6658 90.0028H68.972L64.619 95.7336L68.8706 101.853H65.6794ZM77.8974 102.028C76.6727 102.028 75.6022 101.775 74.6859 101.269C73.7673 100.762 73.0604 100.045 72.5651 99.1174C72.0676 98.1921 71.8188 97.1171 71.8188 95.8923C71.8188 94.6586 72.0709 93.5847 72.5752 92.6706C73.0795 91.7588 73.7921 91.0576 74.7129 90.5668C75.6337 90.076 76.7008 89.8306 77.9143 89.8306C79.1436 89.8306 80.2163 90.0782 81.1326 90.5735C82.0467 91.0688 82.7536 91.7757 83.2534 92.6943C83.751 93.6128 83.9997 94.6845 83.9997 95.9092C83.9997 97.143 83.7465 98.2214 83.2399 99.1444C82.7333 100.07 82.0197 100.781 81.0989 101.279C80.1781 101.778 79.1109 102.028 77.8974 102.028ZM74.4326 95.8923C74.4326 96.6375 74.5857 97.287 74.8919 97.8409C75.1981 98.3947 75.6146 98.818 76.1414 99.1106C76.6682 99.4033 77.2536 99.5497 77.8974 99.5497C78.5526 99.5497 79.1447 99.4033 79.6738 99.1106C80.2051 98.818 80.6238 98.3958 80.93 97.8443C81.2362 97.2927 81.3893 96.642 81.3893 95.8923C81.3893 95.1584 81.2362 94.5201 80.93 93.9776C80.6238 93.435 80.2051 93.0196 79.6738 92.7314C79.1447 92.4433 78.5526 92.2992 77.8974 92.2992C77.2536 92.2992 76.6682 92.4421 76.1414 92.7281C75.6146 93.0117 75.1981 93.426 74.8919 93.9708C74.5857 94.5134 74.4326 95.1539 74.4326 95.8923ZM95.7484 101.853V90.0028H98.3588V99.4855H102.617V101.853H95.7484ZM107.278 101.853V90.0028H114.146V92.3701H109.888V94.5483H113.974V96.9223H109.888V99.4855H114.146V101.853H107.278ZM118.324 101.853L123.126 90.0028H125.345L130.157 101.853H127.347L126.459 99.4619H122.012L121.123 101.853H118.324ZM122.802 97.3174H125.659L124.227 93.4541L122.802 97.3174ZM134.655 101.853V90.0028H138.225C139.17 90.0028 139.941 90.0974 140.538 90.2865C141.135 90.4733 141.61 90.7491 141.963 91.1138C142.553 91.7397 142.848 92.5885 142.848 93.6601C142.848 94.7948 142.524 95.6661 141.875 96.2739C141.652 96.4833 141.4 96.6567 141.119 96.794C140.837 96.9313 140.501 97.0394 140.109 97.1182L143.702 101.853H140.41L137.269 97.3647V101.853H134.655ZM137.269 95.3858H137.965C138.298 95.3858 138.574 95.3768 138.792 95.3588C139.01 95.3408 139.223 95.289 139.43 95.2034C139.635 95.1201 139.804 94.9884 139.937 94.8083C140.137 94.5562 140.237 94.2263 140.237 93.8188C140.237 93.3978 140.137 93.0658 139.937 92.8226C139.804 92.647 139.636 92.5198 139.434 92.441C139.229 92.3622 139.017 92.3138 138.799 92.2958C138.58 92.2778 138.302 92.2688 137.965 92.2688H137.269V95.3858ZM148.292 101.853V90.0028H150.726L155.684 97.3884V90.0028H158.294V101.853H155.856L150.902 94.4672V101.853H148.292ZM164.11 101.853V90.0028H166.72V101.853H164.11ZM172.535 101.853V90.0028H174.973L179.928 97.3884V90.0028H182.538V101.853H180.103L175.146 94.4672V101.853H172.535ZM193.601 102.028C192.376 102.028 191.306 101.775 190.39 101.269C189.471 100.762 188.762 100.045 188.262 99.1174C187.765 98.1921 187.516 97.1171 187.516 95.8923C187.516 94.6586 187.769 93.5847 188.276 92.6706C188.782 91.7588 189.496 91.0576 190.417 90.5668C191.337 90.076 192.405 89.8306 193.618 89.8306C194.53 89.8306 195.375 89.9983 196.154 90.3337C196.933 90.6669 197.585 91.1465 198.11 91.7724C198.634 92.3982 198.979 93.1333 199.143 93.9776H196.387C196.277 93.6399 196.087 93.3438 195.817 93.0894C195.549 92.8372 195.222 92.6425 194.837 92.5052C194.452 92.3678 194.04 92.2992 193.601 92.2992C192.957 92.2992 192.372 92.4421 191.845 92.7281C191.316 93.0117 190.898 93.4271 190.592 93.9742C190.288 94.519 190.136 95.164 190.136 95.9092C190.136 96.6522 190.284 97.3006 190.579 97.8544C190.874 98.4082 191.29 98.8337 191.828 99.1309C192.366 99.4258 192.992 99.5733 193.706 99.5733C194.422 99.5733 195.044 99.4112 195.573 99.087C196.1 98.7628 196.458 98.2889 196.647 97.6653H193.807V95.5276H199.457V95.8518C199.457 97.2094 199.204 98.3508 198.697 99.2761C198.191 100.201 197.496 100.891 196.613 101.346C195.729 101.801 194.725 102.028 193.601 102.028Z" fill="#FE66C4"/>
<path d="M50.7986 113.936H52.065C53.3416 113.936 54.331 113.163 54.5674 111.809C54.7937 110.532 54.1723 109.681 52.8181 109.681H51.5551L50.7986 113.936ZM48.3672 113.771L50.6467 113.936L50.7075 113.609L48.3672 113.771ZM48.4854 113.115L50.7649 113.284L50.8257 112.95L48.4854 113.115ZM48.6002 112.464L50.8797 112.629L50.9337 112.302L48.6002 112.464ZM48.715 111.809L50.9945 111.974L51.0485 111.643L48.715 111.809ZM48.8298 111.153L51.1093 111.322L51.1701 110.988L48.8298 111.153ZM48.9447 110.502L51.2242 110.667L51.2816 110.336L48.9447 110.502ZM49.0629 109.847L51.3423 110.009L51.3964 109.681L49.0629 109.847ZM51.9975 113.024L52.423 110.593H52.5311C53.2605 110.593 53.6691 111.035 53.534 111.809C53.4091 112.538 52.8789 113.024 52.1056 113.024H51.9975ZM56.9077 113.936H57.9411L58.6975 109.681H57.6641L56.9077 113.936ZM62.3447 113.997C63.0843 113.997 63.9488 113.457 64.0873 112.673C64.1784 112.15 63.8205 111.832 63.3578 111.582C63.0066 111.397 62.3008 111.096 62.3447 110.843C62.3785 110.647 62.5608 110.532 62.9154 110.532C63.1991 110.532 63.4118 110.63 63.5402 110.775L64.3844 110.13C64.1717 109.877 63.6314 109.62 63.0741 109.62C62.0813 109.62 61.4194 110.211 61.3046 110.88C61.2235 111.339 61.4059 111.68 61.8449 111.923C62.1556 112.112 63.0978 112.433 63.037 112.757C63.0066 112.933 62.7635 113.085 62.3852 113.085C62.1421 113.085 61.7841 112.95 61.5038 112.666L60.7035 113.359C61.031 113.686 61.5883 113.997 62.3447 113.997ZM68.6158 113.997C69.092 113.997 69.5344 113.882 69.9059 113.656L69.3892 112.886C69.2136 113.011 68.913 113.085 68.6834 113.085C68.0924 113.085 67.7851 112.622 67.9303 111.809C68.062 111.042 68.5078 110.532 69.1325 110.532C69.3284 110.532 69.5884 110.586 69.7168 110.691L70.4766 109.894C70.1963 109.718 69.8248 109.62 69.3824 109.62C68.1194 109.62 67.1468 110.41 66.8969 111.809C66.6639 113.122 67.2785 113.997 68.6158 113.997ZM74.2454 113.997C75.3935 113.997 76.2986 113.2 76.5417 111.809C76.7747 110.495 76.2344 109.62 75.0119 109.62C73.857 109.62 72.9553 110.41 72.7088 111.809C72.4758 113.122 73.0229 113.997 74.2454 113.997ZM73.7354 111.809C73.8671 111.042 74.2825 110.532 74.8532 110.532C75.3868 110.532 75.6603 110.995 75.5151 111.809C75.3834 112.575 74.968 113.085 74.4041 113.085C73.8671 113.085 73.5902 112.622 73.7354 111.809ZM79.7938 113.936H80.8272L82.9209 109.681H81.8572L80.5739 112.447L80.2767 109.681H79.213L79.7938 113.936ZM84.8222 113.936H87.5407L87.7028 113.024H86.021L86.1528 112.264H87.5947L87.7535 111.353H86.3115L86.4466 110.593H88.1283L88.2938 109.681H85.5753L84.8222 113.936ZM90.1951 113.936H91.2284L91.4851 112.508H91.995L92.3834 113.936H93.4167L92.9743 112.308C93.3999 112.082 93.697 111.67 93.8017 111.093C93.9469 110.245 93.5316 109.681 92.6333 109.681H90.9481L90.1951 113.936ZM91.6438 111.596L91.8194 110.593H92.3462C92.6502 110.593 92.8224 110.775 92.7684 111.093C92.7109 111.397 92.4948 111.596 92.1706 111.596H91.6438ZM96.6384 114.446L96.6823 114.53C97.118 114.345 97.405 113.869 97.459 113.565C97.5198 113.237 97.3375 113.024 97.0707 113.024C96.8039 113.024 96.5472 113.244 96.5 113.511C96.4459 113.801 96.6587 113.997 96.9018 113.997C96.9322 113.997 96.9559 113.997 96.9863 113.99C96.9255 114.193 96.8107 114.338 96.6384 114.446ZM105.095 113.936H107.995L108.157 113.024H106.293L106.881 109.681H105.848L105.095 113.936ZM102.663 113.771L104.943 113.936L105.003 113.609L102.663 113.771ZM102.778 113.115L105.057 113.284L105.118 112.95L102.778 113.115ZM102.893 112.464L105.172 112.629L105.23 112.302L102.893 112.464ZM103.011 111.809L105.29 111.974L105.344 111.643L103.011 111.809ZM103.126 111.153L105.405 111.322L105.466 110.988L103.126 111.153ZM103.241 110.502L105.52 110.667L105.574 110.336L103.241 110.502ZM103.355 109.847L105.635 110.009L105.689 109.681L103.355 109.847ZM110.711 113.936H113.429L113.591 113.024H111.909L112.041 112.264H113.483L113.642 111.353H112.2L112.335 110.593H114.017L114.182 109.681H111.464L110.711 113.936ZM116.083 113.936H117.147L117.519 113.176H118.869L118.971 113.936H120.034L119.332 109.681H118.299L116.083 113.936ZM117.968 112.264L118.576 111.035L118.741 112.264H117.968ZM122.692 113.936H123.726L123.982 112.508H124.492L124.881 113.936H125.914L125.471 112.308C125.897 112.082 126.194 111.67 126.295 111.093C126.444 110.245 126.029 109.681 125.13 109.681H123.445L122.692 113.936ZM124.138 111.596L124.317 110.593H124.843C125.147 110.593 125.32 110.775 125.262 111.093C125.208 111.397 124.989 111.596 124.668 111.596H124.138ZM130.881 113.936H132.036L132.79 109.681H131.756L131.317 112.16L130.48 109.681H129.325L128.572 113.936H129.605L130.041 111.457L130.881 113.936ZM140.344 113.997C141.337 113.997 142.174 113.359 142.404 112.318H142.728L142.867 111.528H141.34L141.202 112.318H141.499C141.371 112.879 141.08 113.085 140.509 113.085C140.185 113.085 140.023 112.886 140.077 112.599C140.124 112.308 140.344 112.126 140.678 112.126H140.891L141.05 111.214H140.959C140.638 111.214 140.496 111.032 140.533 110.822C140.563 110.66 140.722 110.532 140.965 110.532C141.087 110.532 141.195 110.606 141.293 110.758L142.249 110.198C142.107 109.961 141.664 109.62 141.127 109.62C140.222 109.62 139.554 110.204 139.439 110.822C139.392 111.096 139.483 111.383 139.669 111.609C139.317 111.869 139.051 112.221 138.983 112.599C138.855 113.298 139.469 113.997 140.344 113.997ZM152.282 113.997C152.758 113.997 153.275 113.899 154.004 113.328L154.18 112.308L154.315 111.572H152.744L152.582 112.484H153.116L153.048 112.889C152.866 113.011 152.576 113.085 152.349 113.085C151.762 113.085 151.451 112.622 151.596 111.809C151.731 111.042 152.174 110.532 152.798 110.532C152.994 110.532 153.254 110.586 153.383 110.691L154.142 109.894C153.862 109.718 153.494 109.62 153.048 109.62C151.785 109.62 150.813 110.41 150.563 111.809C150.333 113.122 150.944 113.997 152.282 113.997ZM148.023 112.464L150.364 112.636C150.357 112.521 150.357 112.403 150.364 112.302L148.023 112.464ZM148.084 113.115L150.539 113.298C150.489 113.19 150.448 113.072 150.424 112.95L148.084 113.115ZM148.108 111.809L150.387 111.974C150.397 111.863 150.424 111.755 150.448 111.643L148.108 111.809ZM148.246 111.153L150.526 111.322C150.563 111.207 150.607 111.096 150.654 110.981L148.246 111.153ZM148.418 113.771L151.147 113.936C150.995 113.852 150.867 113.747 150.759 113.609L148.418 113.771ZM148.533 110.502L150.813 110.667C150.88 110.549 150.958 110.434 151.049 110.326L148.533 110.502ZM149.104 109.847L151.383 110.009C151.542 109.877 151.701 109.765 151.893 109.681L149.104 109.847ZM156.611 113.936H157.644L157.901 112.508H158.411L158.799 113.936H159.833L159.39 112.308C159.816 112.082 160.113 111.67 160.214 111.093C160.363 110.245 159.948 109.681 159.049 109.681H157.364L156.611 113.936ZM158.056 111.596L158.235 110.593H158.762C159.066 110.593 159.238 110.775 159.181 111.093C159.127 111.397 158.907 111.596 158.587 111.596H158.056ZM164.405 113.997C165.553 113.997 166.458 113.2 166.702 111.809C166.931 110.495 166.391 109.62 165.168 109.62C164.014 109.62 163.115 110.41 162.865 111.809C162.636 113.122 163.183 113.997 164.405 113.997ZM163.892 111.809C164.027 111.042 164.439 110.532 165.013 110.532C165.547 110.532 165.82 110.995 165.675 111.809C165.54 112.575 165.128 113.085 164.561 113.085C164.027 113.085 163.747 112.622 163.892 111.809ZM172.172 113.936H173.206L175.235 109.681H174.172L172.986 112.325L172.774 109.681H171.71L170.562 112.325L170.312 109.681H169.248L169.771 113.936H170.805L171.912 111.542L172.172 113.936Z" fill="#FFDE59"/>
</g>
<defs>
<linearGradient id="paint0_linear_54_2910" x1="97.5052" y1="36.434" x2="123.388" y2="70.6959" gradientUnits="userSpaceOnUse">
<stop stop-color="#DFFF78"/>
<stop offset="1" stop-color="#00F5BF"/>
</linearGradient>
<linearGradient id="paint1_linear_54_2910" x1="108.13" y1="32.2417" x2="134.554" y2="64.879" gradientUnits="userSpaceOnUse">
<stop stop-color="#DFFF78"/>
<stop offset="1" stop-color="#00F5BF"/>
</linearGradient>
<linearGradient id="paint2_linear_54_2910" x1="97.3185" y1="28.0266" x2="132.482" y2="80.2599" gradientUnits="userSpaceOnUse">
<stop stop-color="#DFFF78"/>
<stop offset="1" stop-color="#00F5BF"/>
</linearGradient>
<clipPath id="clip0_54_2910">
<rect width="225" height="180" fill="white" transform="translate(0 -19.5532)"/>
</clipPath>
</defs>
</svg>
