<svg width="126" height="162" viewBox="0 0 126 162" fill="none" xmlns="http://www.w3.org/2000/svg">
<path fill-rule="evenodd" clip-rule="evenodd" d="M103.633 31.0901C105.118 27.4622 108.024 22.3245 106.696 15.3955C105.333 8.2861 96.117 3.20714 88.4957 4.44819C80.6512 5.72529 76.7802 11.5256 73.1934 18.391C63.6769 36.6036 49.3708 61.9413 43.3354 77.0281C43.004 77.8562 45.6595 90.9821 47.0363 97.917C47.5728 100.62 47.9133 103.97 50.7669 105.291C53.6038 106.604 56.576 104.888 58.95 103.352C64.34 99.8648 69.1339 95.5266 73.9469 91.3046C75.8339 89.6495 94.8183 50.2967 103.633 31.0901V31.0901Z" stroke="#FE66C4" stroke-width="2.93433" stroke-miterlimit="1.5" stroke-linecap="round" stroke-linejoin="round"/>
<path fill-rule="evenodd" clip-rule="evenodd" d="M75.9998 13.5509C75.0249 15.0629 74.1225 16.6915 73.2376 18.3854C71.6312 21.4595 69.8883 24.737 68.072 28.133C68.3478 28.196 68.6213 28.2587 68.8934 28.3198C78.9777 30.5825 89.8833 36.1608 98.0138 43.2337C100.13 38.7476 102.072 34.582 103.677 31.0845C103.84 30.6864 104.02 30.2702 104.21 29.8355C96.8717 21.761 86.7598 15.0242 75.9998 13.5509V13.5509Z" stroke="#FE66C4" stroke-width="2.93433" stroke-miterlimit="1.5" stroke-linecap="round" stroke-linejoin="round"/>
<path d="M43.3071 77.2915C44.1016 76.7399 45.9088 76.164 46.8635 75.9221C51.9301 74.639 54.4297 79.8848 55.1718 83.9618C56.1668 82.6763 57.4801 81.406 59.027 80.8009C63.5698 79.0242 66.3623 82.843 66.0138 87.0463C69.3278 85.1191 75.174 85.6043 74.1282 91.0757" stroke="#FE66C4" stroke-width="2.93433" stroke-miterlimit="1.5" stroke-linecap="round" stroke-linejoin="round"/>
<path d="M46.224 93.7031C49.2079 92.8062 52.6082 93.0394 55.7153 94.1298C58.9526 95.2658 61.8715 97.3324 63.6695 100.02" stroke="#FE66C4" stroke-width="2.93433" stroke-miterlimit="1.5" stroke-linecap="round" stroke-linejoin="round"/>
<path d="M55.1532 83.9531C57.3136 78.2011 61.1158 69.066 64.1238 62.82C68.9215 52.858 74.2307 41.5002 79.4477 31.7552" stroke="#FE66C4" stroke-width="2.93433" stroke-miterlimit="1.5" stroke-linecap="round" stroke-linejoin="round"/>
<path d="M66.0142 87.0385C74.2095 71.3788 81.2952 52.7144 90.1601 37.4123" stroke="#FE66C4" stroke-width="2.93433" stroke-miterlimit="1.5" stroke-linecap="round" stroke-linejoin="round"/>
<path fill-rule="evenodd" clip-rule="evenodd" d="M48.6484 125.752L48.6038 125.755C48.4124 125.759 48.2164 125.758 48.0907 125.774C46.3785 126.005 44.2557 125.572 42.3917 125.103C37.9318 123.98 33.4853 123.088 29.054 122.281C27.8124 122.055 26.5913 121.98 25.3641 121.834C25.001 121.792 24.6408 121.755 24.2795 121.718C24.1225 121.703 23.7797 121.589 23.6074 121.564C23.483 121.545 23.3965 121.562 23.3487 121.582C23.2298 121.636 23.1913 121.735 23.2008 121.853C23.2058 121.929 23.2331 122.055 23.387 122.207C25.009 123.803 27.6875 125.354 30.6596 126.804C35.0252 128.934 40.0268 130.859 43.1102 132.457C43.9208 132.878 45.6366 133.483 47.0909 134.164C47.736 134.465 48.3291 134.772 48.7358 135.089C48.3715 135.02 47.9128 134.891 47.6575 134.862C46.5545 134.733 45.4218 134.433 44.3096 134.24C40.9267 133.65 30.9999 133.924 27.8444 134.269C25.2914 134.547 11.3664 137.627 5.43412 142.583C5.30671 142.689 5.32644 142.911 5.47882 143.078C5.63119 143.246 5.85816 143.295 5.98472 143.189C11.846 138.293 25.6076 135.258 28.1296 134.983C31.2506 134.642 41.062 134.364 44.4048 134.947C45.5322 135.143 46.6786 135.444 47.7957 135.574C48.1986 135.621 49.0663 135.874 49.4111 135.849C49.6058 135.835 49.7097 135.747 49.7505 135.651C49.7996 135.532 49.8025 135.355 49.605 135.105C49.281 134.697 48.6738 134.274 47.9303 133.882C46.3815 133.065 44.2102 132.326 43.2677 131.838C40.18 130.237 35.1697 128.307 30.7958 126.174C28.3586 124.985 26.1213 123.739 24.5512 122.445C24.8675 122.477 25.1833 122.511 25.5014 122.548C26.7134 122.69 27.9176 122.764 29.144 122.987C33.5584 123.792 37.9885 124.679 42.4301 125.798C44.3808 126.289 46.5995 126.728 48.3906 126.488C48.6428 126.454 49.1812 126.483 49.3832 126.397C49.5127 126.342 49.5733 126.247 49.5883 126.148C49.6088 126.028 49.582 125.874 49.4159 125.687C48.738 124.923 47.3624 123.866 45.6754 122.715C41.8428 120.101 36.3826 116.958 34.1755 115.592C32.6933 114.674 31.183 113.803 29.7171 112.846C29.6441 112.798 28.2964 111.795 27.655 111.316C28.0057 111.19 28.5588 111.101 29.2076 111.023C31.489 110.749 34.956 110.744 36.0034 110.729C38.012 110.698 40.0331 110.722 42.0263 110.642C45.1717 110.516 48.2757 110.28 51.4337 110.19C51.621 110.186 51.7196 110.02 51.6547 109.823C51.5895 109.624 51.3841 109.468 51.1979 109.473C48.0368 109.562 44.9299 109.798 41.7816 109.925C39.7953 110.005 37.7791 109.98 35.7753 110.011C34.7182 110.027 31.2192 110.034 28.9166 110.31C27.8609 110.435 27.052 110.637 26.7705 110.893C26.6936 110.965 26.5984 111.172 26.87 111.463C27.2178 111.837 29.3658 113.346 29.4694 113.414C30.9428 114.375 32.4605 115.25 33.9494 116.173C36.149 117.535 41.5908 120.666 45.4093 123.271C46.7839 124.208 47.9461 125.07 48.6484 125.752Z" fill="#FE66C4"/>
</svg>
