<svg width="71" height="72" viewBox="0 0 71 72" fill="none" xmlns="http://www.w3.org/2000/svg">
<path d="M48.5666 28.3265C42.8511 16.8861 23.594 19.4036 20.8434 31.9716C19.1837 39.5552 26.1818 44.8624 27.0857 51.9641H43.1285C43.6002 50.0651 44.5601 47.8067 45.2247 46.4186C46.606 43.5347 48.5599 41.6497 49.3018 38.4323C50.0075 35.371 49.9258 31.0477 48.5666 28.3265Z" fill="white" stroke="black" stroke-width="2.13444" stroke-miterlimit="1.5" stroke-linecap="round" stroke-linejoin="round"/>
<path fill-rule="evenodd" clip-rule="evenodd" d="M26.7893 61.6429C26.7847 59.4516 26.6771 57.2603 26.7152 55.0695C26.7302 54.2021 26.5821 53.141 27.3328 52.5345C28.4292 51.6493 30.0599 51.5203 31.4205 51.4875C33.9705 51.4265 36.5402 51.448 39.0929 51.4532C40.2555 51.4552 41.9905 51.2534 43.0383 51.831C44.0356 52.3799 44.2881 53.876 44.4002 54.8864C44.6153 56.8227 45.1877 61.1464 43.5438 62.6454C42.5085 63.5896 40.8935 63.7871 39.5676 63.9504C36.0504 64.3832 26.7945 64.2972 26.7893 61.6429Z" fill="white" stroke="black" stroke-width="2.13444" stroke-miterlimit="1.5" stroke-linecap="round" stroke-linejoin="round"/>
<path d="M36.1643 64.1364C36.193 65.329 36.2071 66.5278 36.1133 67.7185" stroke="black" stroke-width="2.13444" stroke-miterlimit="1.5" stroke-linecap="round" stroke-linejoin="round"/>
<path d="M8.34766 45.9297C9.59897 45.2693 10.9058 44.726 12.1705 44.0942" stroke="black" stroke-width="2.13444" stroke-miterlimit="1.5" stroke-linecap="round" stroke-linejoin="round"/>
<path d="M8.34766 20.2625C9.74445 21.1494 11.0806 22.1297 12.4806 23.0089" stroke="black" stroke-width="2.13444" stroke-miterlimit="1.5" stroke-linecap="round" stroke-linejoin="round"/>
<path d="M35.918 9.7495C35.8689 7.99282 35.8797 6.24872 35.9359 4.49268" stroke="black" stroke-width="2.13444" stroke-miterlimit="1.5" stroke-linecap="round" stroke-linejoin="round"/>
<path d="M57.543 21.7155C59.2965 20.5548 61.1023 19.4643 62.8857 18.3502" stroke="black" stroke-width="2.13444" stroke-miterlimit="1.5" stroke-linecap="round" stroke-linejoin="round"/>
<path d="M54.4844 45.6531C55.8365 46.8648 57.1944 48.0625 58.5031 49.3215" stroke="black" stroke-width="2.13444" stroke-miterlimit="1.5" stroke-linecap="round" stroke-linejoin="round"/>
</svg>
