<svg width="53" height="53" viewBox="0 0 53 53" fill="none" xmlns="http://www.w3.org/2000/svg">
<path d="M25.2781 10.6439C19.5907 9.84009 14.1013 13.7715 12.739 19.0249C11.3355 24.4365 14.8607 31.3469 20.8957 32.2483C24.3846 32.7695 29.07 31.5207 31.5871 28.8793C36.2797 23.9555 35.2437 15.3526 28.9724 11.7913" stroke="#FE66C4" stroke-width="2.13444" stroke-miterlimit="1.5" stroke-linecap="round" stroke-linejoin="round"/>
<path fill-rule="evenodd" clip-rule="evenodd" d="M32.8071 27.3358C32.1618 28.382 31.2303 29.2505 30.7912 29.6142C32.3405 31.2233 34.4815 33.0102 36.2453 34.3707C37.3466 35.2205 38.5018 35.9106 39.6428 36.7061C40.5453 37.3356 42.3952 37.7451 42.5431 36.1361C42.6566 34.9047 41.3531 33.88 40.5339 33.1622C38.2709 31.1782 35.1689 29.179 32.8071 27.3358Z" fill="#FE66C4" stroke="#FE66C4" stroke-width="2.13444" stroke-miterlimit="1.5" stroke-linecap="round" stroke-linejoin="round"/>
<path d="M21.3321 16.1505C21.9085 15.812 22.5987 15.5879 23.2975 15.527C24.0795 15.4589 24.8723 15.5951 25.5278 16.004" stroke="#FE66C4" stroke-width="2.13444" stroke-miterlimit="1.5" stroke-linecap="round" stroke-linejoin="round"/>
</svg>
