<svg width="64" height="65" viewBox="0 0 64 65" fill="none" xmlns="http://www.w3.org/2000/svg">
<path d="M48.5124 51.7458C38.498 47.3289 22.286 39.4942 13.2695 34.7894C25.2136 25.7653 33.4249 22.1897 46.6218 13.7607" stroke="#2E2E2E" stroke-width="2.93433" stroke-miterlimit="1.5" stroke-linecap="round" stroke-linejoin="round"/>
<path fill-rule="evenodd" clip-rule="evenodd" d="M51.1212 2.06387C47.6429 0.864734 44.5289 3.83383 43.0182 6.7022C40.1805 12.0898 41.0575 20.9253 48.0908 22.4892C52.1169 23.3844 55.9158 22.7512 59.0078 19.8969C65.3409 14.0505 62.6643 3.40545 54.2839 1.77405" fill="white"/>
<path d="M51.1212 2.06387C47.6429 0.864734 44.5289 3.83383 43.0182 6.7022C40.1805 12.0898 41.0575 20.9253 48.0908 22.4892C52.1169 23.3844 55.9158 22.7512 59.0078 19.8969C65.3409 14.0505 62.6643 3.40545 54.2839 1.77405" stroke="#2E2E2E" stroke-width="2.93433" stroke-miterlimit="1.5" stroke-linecap="round" stroke-linejoin="round"/>
<path fill-rule="evenodd" clip-rule="evenodd" d="M52.124 42.8734C43.0081 41.764 37.4613 58.201 46.7525 61.7029C49.8507 62.8706 54.4936 63.4528 57.3203 61.3797C62.9418 57.2575 62.3355 48.0632 56.3508 45.1396" fill="white"/>
<path d="M52.124 42.8734C43.0081 41.764 37.4613 58.201 46.7525 61.7029C49.8507 62.8706 54.4936 63.4528 57.3203 61.3797C62.9418 57.2575 62.3355 48.0632 56.3508 45.1396" stroke="#2E2E2E" stroke-width="2.93433" stroke-miterlimit="1.5" stroke-linecap="round" stroke-linejoin="round"/>
<path fill-rule="evenodd" clip-rule="evenodd" d="M17.7107 25.7787C15.0816 24.3127 11.4564 23.1791 8.50315 24.4009C2.62606 26.8325 -1.19941 37.7036 3.74618 42.4629C13.6711 52.0143 26.3719 38.1533 19.3923 27.6258" fill="white"/>
<path d="M17.7107 25.7787C15.0816 24.3127 11.4564 23.1791 8.50315 24.4009C2.62606 26.8325 -1.19941 37.7036 3.74618 42.4629C13.6711 52.0143 26.3719 38.1533 19.3923 27.6258" stroke="#2E2E2E" stroke-width="2.93433" stroke-miterlimit="1.5" stroke-linecap="round" stroke-linejoin="round"/>
</svg>
