<svg width="279" height="36" viewBox="0 0 279 36" fill="none" xmlns="http://www.w3.org/2000/svg">
<path fill-rule="evenodd" clip-rule="evenodd" d="M103.303 12.8957C101.618 13.1419 99.943 13.4053 98.2791 13.6872C97.6734 13.7897 97.3211 14.2513 97.4904 14.7177L97.4991 14.736C88.4172 14.6937 79.3402 14.7174 70.2705 14.8088C57.1687 14.9412 43.9944 15.3088 30.9632 16.0124C18.0852 16.7078 14.5266 16.8822 3.48076 18.2321C3.16487 18.2707 2.55153 18.257 2.22477 18.3213C1.91403 18.3823 1.69467 18.4944 1.55556 18.6055C1.3773 18.7462 1.27851 18.9102 1.24165 19.091C1.20293 19.288 1.22797 19.53 1.46341 19.804C2.12744 20.5732 3.15522 20.7995 4.39017 20.6617C5.45274 20.5431 6.72289 20.0784 7.73279 20.0407C24.5447 19.4143 41.3407 18.6868 58.1552 18.079C83.8964 17.1486 109.592 16.9511 135.304 17.017C162.362 17.6783 189.432 18.9028 216.478 20.6467C234.093 21.7819 251.689 23.3153 269.292 24.696C269.282 24.7545 269.282 24.8158 269.289 24.8784C269.348 25.3555 269.906 25.7281 270.532 25.7103C271.165 25.6921 276.827 25.6701 277.863 25.4929C278.456 25.3914 278.677 25.1147 278.749 24.9958C278.945 24.6698 278.941 24.3117 278.457 23.9615C278.361 23.8943 278.183 23.7828 277.862 23.708C277.587 23.6425 276.91 23.5538 275.682 23.4614C255.969 21.9652 236.267 20.1951 216.541 18.9224C207.735 18.3555 198.926 17.8422 190.112 17.3872C202.051 17.4812 213.994 17.5593 225.953 17.5756C226.468 17.5775 226.715 17.5183 226.76 17.5041C227.408 17.3 227.436 16.9062 227.413 16.6823C227.406 16.6025 227.288 15.9421 226.32 15.8325C225.753 15.7681 221.672 15.5901 220.101 15.4991C212.551 15.0566 212.729 15.1083 205.008 14.705C188.029 13.8198 171.083 13.1309 154.096 12.5157C147.323 12.2707 140.551 12.0501 133.779 11.8564C153.23 10.9398 173.143 11.3442 192.111 11.5251C201.896 11.6186 211.685 11.7584 221.478 12.0279C225.863 12.1487 230.251 12.3254 234.637 12.4628C236 12.5054 237.36 12.5722 238.721 12.6209C238.883 12.6266 240.994 12.6772 241.34 12.6776C242.246 12.6787 242.427 12.0686 242.434 12.0442C242.468 11.9294 242.581 11.1062 241.449 10.9588C225.091 8.8291 208.048 8.95808 191.595 8.36687C162.799 7.33203 133.955 6.9337 105.214 7.10311C92.5018 7.17794 79.8449 7.5798 67.1649 7.97808C60.832 8.17705 54.4832 8.39434 48.2309 9.04322C47.6036 9.10843 46.1778 9.16161 45.4886 9.2399C45.1379 9.27989 44.8899 9.34839 44.7771 9.39614C44.2827 9.60331 44.1965 9.9194 44.1984 10.1421C44.2008 10.3091 44.2738 10.898 45.3203 11.0961C60.2743 13.9298 76.6676 12.5663 91.732 12.7361C95.5884 12.7795 99.444 12.8329 103.303 12.8957ZM115.869 13.1336C111.423 13.5736 107.024 14.1116 102.694 14.7678C113.538 14.8484 124.386 15.0227 135.243 15.2882C153.136 15.3341 171.034 15.5071 188.952 15.6491C177.347 15.1198 165.741 14.6643 154.118 14.2436C141.369 13.7819 128.617 13.4077 115.869 13.1336ZM177.704 9.64411C153.575 8.94759 129.433 8.69072 105.364 8.83264C92.6743 8.90745 80.0442 9.3088 67.3887 9.70636C62.409 9.86278 57.4161 10.0293 52.4719 10.414C65.3543 11.842 78.9696 10.8638 91.6357 11.0067C99.635 11.0969 107.64 11.2293 115.645 11.4011C135.889 9.41543 157.131 9.43774 177.704 9.64411Z" fill="#FE66C4"/>
</svg>
