<svg width="53" height="58" viewBox="0 0 53 58" fill="none" xmlns="http://www.w3.org/2000/svg">
<path d="M9.70703 40.7252C9.70703 40.7252 11.0716 38.6853 11.9424 36.0762C12.8166 33.4706 13.8109 30.8444 15.8028 29.2364C16.9651 28.297 19.0702 26.8159 20.3353 25.5268C21.2369 24.608 21.5455 23.6652 21.5455 23.6652C21.5455 23.6652 22.8655 23.5006 22.574 25.8594C22.2826 28.2182 21.3467 28.2182 20.3353 29.3907C19.3239 30.5632 18.5319 32.1472 18.5319 32.1472C18.5319 32.1472 22.4438 32.0306 24.4528 30.7484C26.4653 29.4627 27.0996 28.585 28.0459 26.6617C28.9921 24.7383 30.0241 23.2812 31.1966 22.3864C32.3692 21.4915 33.3017 21.3167 33.2914 21.8138C33.2811 22.3109 32.2903 22.6435 30.9463 25.7908C29.7327 28.6296 27.9704 30.937 27.9704 30.937C27.9704 30.937 30.3224 29.3907 31.3646 27.0628C32.4069 24.7349 33.4903 22.6332 34.7691 21.327C36.0479 20.0242 37.1896 20.439 36.545 21.2893C35.9005 22.1395 34.8548 23.5383 34.0217 25.9965C32.6229 30.1278 30.7201 31.4992 30.7201 31.4992C30.7201 31.4992 32.8183 30.5153 33.9291 27.6971C35.0365 24.8789 36.2159 22.071 37.2547 21.3407C38.2935 20.6104 38.6021 21.0527 37.7484 22.7155C36.3359 25.472 36.7816 26.7371 35.8388 28.849C34.8102 31.1598 33.36 32.3083 33.36 32.3083C33.36 32.3083 34.7348 32.1369 36.3702 28.6536C37.3438 26.5794 38.5918 25.8114 38.9861 26.2125C39.3804 26.6137 37.769 28.7462 36.6787 31.9072C35.5885 35.0682 33.2948 37.427 27.751 39.3367C22.2072 41.2463 21.9021 41.0441 19.5501 42.9297C17.7468 44.3765 16.8348 45.7685 16.8348 45.7685C13.7046 44.0577 9.70703 40.7252 9.70703 40.7252Z" fill="url(#paint0_linear_232_3192)"/>
<path d="M20.7443 19.0402C20.9363 19.3659 20.83 19.7876 20.5009 19.9796L19.0369 20.8436C18.9272 20.9087 18.8072 20.9396 18.6906 20.9396C18.4575 20.9396 18.2278 20.8196 18.1009 20.6036C17.9089 20.2779 18.0152 19.8562 18.3444 19.6642L19.8083 18.8002C20.1306 18.6082 20.5523 18.7145 20.7443 19.0402ZM27.9955 22.8389L24.6493 22.8149H24.6459C24.2687 22.8149 23.9636 23.1201 23.9602 23.4972C23.9567 23.8743 24.2619 24.1863 24.6424 24.1863L27.9886 24.2103H27.992C28.3692 24.2103 28.6743 23.9052 28.6777 23.528C28.6777 23.1509 28.3726 22.8424 27.9955 22.8389ZM18.4129 14.3843C18.6701 14.3843 18.9135 14.2403 19.0335 13.9935C19.198 13.6507 19.0506 13.2427 18.7112 13.0781L17.1821 12.3478C16.8393 12.1867 16.4313 12.3307 16.2667 12.6701C16.1021 13.013 16.2496 13.4209 16.589 13.5855L18.1181 14.3158C18.2141 14.3603 18.3135 14.3843 18.4129 14.3843ZM29.8537 8.96395C30.0388 8.96395 30.224 8.88853 30.3611 8.7411L31.5439 7.44515C31.7976 7.16401 31.7805 6.73202 31.4994 6.47489C31.2182 6.21775 30.7862 6.23832 30.5291 6.51946L29.3463 7.81542C29.0926 8.09655 29.1097 8.52853 29.3909 8.78566C29.5246 8.90566 29.6891 8.96395 29.8537 8.96395ZM22.3385 8.36054C22.4482 8.62796 22.7019 8.7891 22.9728 8.7891C23.0585 8.7891 23.1442 8.77196 23.2299 8.73767C23.5796 8.59368 23.751 8.19597 23.607 7.84627L22.9454 6.21775C22.8014 5.86805 22.4037 5.69662 22.054 5.84062C21.7042 5.98461 21.5328 6.38232 21.6768 6.73202L22.3385 8.36054ZM36.2478 13.2324C36.1586 12.8655 35.7918 12.6393 35.4215 12.725L33.7759 13.1192C33.409 13.2084 33.1793 13.5787 33.2685 13.9455C33.3439 14.2609 33.625 14.4735 33.9336 14.4735C33.985 14.4735 34.0398 14.4666 34.0947 14.4529L35.7404 14.0586C36.1072 13.9729 36.3335 13.6027 36.2478 13.2324ZM34.6021 18.6562L32.9839 18.1385C32.6205 18.0254 32.2365 18.2242 32.1233 18.5842C32.0068 18.9442 32.2056 19.3316 32.569 19.4448L34.1873 19.9624C34.2558 19.983 34.3278 19.9967 34.3964 19.9967C34.6878 19.9967 34.9552 19.8116 35.0512 19.5202C35.1644 19.1568 34.9655 18.7728 34.6021 18.6562ZM28.1498 20.8127C28.136 20.8161 26.8744 21.1041 24.3682 20.8196C23.991 20.775 23.6516 21.0458 23.6105 21.423C23.5693 21.8001 23.8368 22.1395 24.2139 22.1807C25.0916 22.2801 25.8321 22.3144 26.439 22.3144C27.7555 22.3144 28.4343 22.1532 28.4755 22.143C28.8423 22.0538 29.0652 21.6835 28.976 21.3167C28.8869 20.9498 28.5166 20.727 28.1498 20.8127ZM32.2639 14.2061C31.3314 7.73657 21.1866 7.79142 20.2643 14.2061C19.8289 17.2403 22.7876 18.6014 23.4219 19.8082C23.4219 19.8082 24.2173 20.0379 25.7464 20.0516L25.6847 18.2311C25.6847 18.2311 25.2013 17.8128 24.6184 17.5214C24.0356 17.2265 23.6585 16.8974 23.6585 16.8974L23.6482 15.8929C23.6482 15.8929 23.2951 15.862 23.0928 15.7077C22.8871 15.5534 22.8254 15.3992 23.0139 15.2895C23.0756 15.2552 23.1956 15.3135 23.3362 15.3306C23.4871 15.3512 23.6619 15.3272 23.6619 15.3272L23.6448 14.7512C23.6448 14.7512 23.6379 14.4769 23.9739 14.4632C24.3099 14.4495 24.3236 14.7306 24.3236 14.7306L24.327 15.3409C24.327 15.3409 24.5533 15.3717 24.735 15.1386C24.9167 14.9055 24.927 14.7958 25.2184 14.7786C25.575 14.758 25.8733 15.2655 26.2812 15.2655C26.6927 15.2655 26.9875 14.758 27.3441 14.7786C27.6355 14.7958 27.6458 14.9055 27.8275 15.1386C28.0092 15.3717 28.2355 15.3409 28.2355 15.3409L28.2389 14.7306C28.2389 14.7306 28.2526 14.4529 28.5886 14.4632C28.9246 14.4735 28.9177 14.7512 28.9177 14.7512L28.9006 15.3272C28.9006 15.3272 29.0754 15.3477 29.2263 15.3306C29.3669 15.3135 29.4869 15.2552 29.5486 15.2895C29.7371 15.3992 29.672 15.5534 29.4697 15.7077C29.264 15.862 28.9143 15.8929 28.9143 15.8929L28.904 16.8974C28.904 16.8974 28.5269 17.2265 27.9441 17.5214C27.3612 17.8162 26.8778 18.2311 26.8778 18.2311L26.8161 20.0516C28.3212 20.0344 29.1029 19.8116 29.1029 19.8116C29.7406 18.6013 32.6993 17.2403 32.2639 14.2061ZM28.16 16.4174L28.1703 15.8757C28.1703 15.8757 27.8789 15.9683 27.7623 15.9134C27.5464 15.8106 27.4846 15.6597 27.4846 15.6597C27.4846 15.6597 27.2789 15.8963 26.9944 16.0609C26.7372 16.2083 26.4972 16.2357 26.2778 16.2357C26.0584 16.2357 25.8184 16.2083 25.5613 16.0609C25.2767 15.8963 25.071 15.6597 25.071 15.6597C25.071 15.6597 25.0093 15.814 24.7933 15.9134C24.6802 15.9683 24.3853 15.8757 24.3853 15.8757L24.3956 16.4174C24.3956 16.4174 25.6093 16.7534 26.2744 17.6688C26.9498 16.7534 28.16 16.4174 28.16 16.4174Z" fill="url(#paint1_linear_232_3192)"/>
<path d="M32.4427 58.0081C32.4324 58.0081 32.4255 58.0081 32.4152 58.0081C23.0932 57.7989 17.3986 54.9807 17.162 54.8642C16.8089 54.6859 16.5655 54.343 16.5106 53.9522L15.4546 46.0187C13.1199 45.0039 5.49153 41.1812 2.02879 33.4294C-0.329992 28.1496 -0.233993 22.1841 2.30992 15.6974C5.34411 7.96282 11.3885 2.87156 19.3357 1.36304C27.0154 -0.0940602 35.2506 2.23387 39.8276 7.16056C45.7417 13.5238 45.632 19.887 45.5531 24.5326C45.5188 26.5108 45.4914 28.2182 45.9062 29.5004C46.9211 32.6169 49.2833 33.2271 50.6958 33.5906C51.2615 33.738 51.6729 33.8443 52.002 34.1425C52.9003 34.9688 52.9003 36.1379 52.002 37.6156C51.3815 38.6373 50.2844 39.9744 48.769 41.8292L48.673 41.9491C47.8639 42.9365 47.2879 44.2051 46.6742 45.549C45.4194 48.3055 43.9931 51.4323 40.1636 52.1042C38.103 52.4642 35.5386 51.5797 33.9375 50.8871C33.8449 51.494 33.7489 52.262 33.6735 53.1431C33.4849 55.3167 33.6392 56.6504 33.6392 56.6641C33.6803 57.0104 33.5706 57.3566 33.3375 57.6138C33.1044 57.8641 32.7821 58.0081 32.4427 58.0081ZM18.8043 52.9682C20.3059 53.5991 24.7423 55.2276 31.1776 55.5601C31.1673 54.8916 31.1844 54.0002 31.277 52.9339C31.4861 50.5306 31.8427 48.9261 31.8564 48.8575C31.9387 48.4906 32.189 48.1821 32.5318 48.0278C32.8746 47.8735 33.2689 47.8872 33.6015 48.0655C34.6677 48.6449 37.8459 50.0712 39.7418 49.742C42.3269 49.2895 43.328 47.0953 44.4834 44.5548C45.1314 43.132 45.8034 41.6577 46.8079 40.4303L46.9039 40.3103C48.4056 38.4761 49.8318 36.7345 50.1884 35.9425C50.1541 35.9322 50.1198 35.9253 50.089 35.9151C48.5804 35.5242 45.0423 34.6088 43.6194 30.2444C43.0778 28.5816 43.1086 26.6856 43.1463 24.4914C43.2217 20.0173 43.3177 14.4495 38.0619 8.79251C34.0266 4.44865 26.6794 2.41215 19.7779 3.72182C12.6707 5.0692 7.26062 9.63249 4.53842 16.5717C2.24136 22.4275 2.13165 27.7656 4.20929 32.4317C7.81261 40.5263 16.8775 44.0131 16.97 44.0474C17.3849 44.2016 17.6797 44.5753 17.738 45.0142L18.8043 52.9682Z" fill="url(#paint2_linear_232_3192)"/>
<defs>
<linearGradient id="paint0_linear_232_3192" x1="11.5052" y1="14.434" x2="37.3882" y2="48.6959" gradientUnits="userSpaceOnUse">
<stop stop-color="#DFFF78"/>
<stop offset="1" stop-color="#00F5BF"/>
</linearGradient>
<linearGradient id="paint1_linear_232_3192" x1="22.1302" y1="10.2417" x2="48.5541" y2="42.879" gradientUnits="userSpaceOnUse">
<stop stop-color="#DFFF78"/>
<stop offset="1" stop-color="#00F5BF"/>
</linearGradient>
<linearGradient id="paint2_linear_232_3192" x1="11.3185" y1="6.0266" x2="46.4821" y2="58.2599" gradientUnits="userSpaceOnUse">
<stop stop-color="#DFFF78"/>
<stop offset="1" stop-color="#00F5BF"/>
</linearGradient>
</defs>
</svg>
