<svg width="19" height="19" viewBox="0 0 19 19" fill="none" xmlns="http://www.w3.org/2000/svg">
<g clip-path="url(#clip0_40_9602)">
<path d="M14.8887 15.2178H4.38867C3.39448 15.2166 2.44134 14.8211 1.73834 14.1181C1.03533 13.4151 0.639863 12.462 0.638672 11.4678L0.638672 6.96777C0.639863 5.97358 1.03533 5.02044 1.73834 4.31744C2.44134 3.61443 3.39448 3.21896 4.38867 3.21777H14.8887C15.8829 3.21896 16.836 3.61443 17.539 4.31744C18.242 5.02044 18.6375 5.97358 18.6387 6.96777V11.4678C18.6375 12.462 18.242 13.4151 17.539 14.1181C16.836 14.8211 15.8829 15.2166 14.8887 15.2178ZM4.38867 4.71777C3.79193 4.71777 3.21964 4.95483 2.79768 5.37678C2.37572 5.79874 2.13867 6.37104 2.13867 6.96777V11.4678C2.13867 12.0645 2.37572 12.6368 2.79768 13.0588C3.21964 13.4807 3.79193 13.7178 4.38867 13.7178H14.8887C15.4854 13.7178 16.0577 13.4807 16.4797 13.0588C16.9016 12.6368 17.1387 12.0645 17.1387 11.4678V6.96777C17.1387 6.37104 16.9016 5.79874 16.4797 5.37678C16.0577 4.95483 15.4854 4.71777 14.8887 4.71777H4.38867ZM9.63867 12.2178C9.04533 12.2178 8.46531 12.0418 7.97196 11.7122C7.47861 11.3825 7.0941 10.914 6.86703 10.3658C6.63997 9.81765 6.58056 9.21445 6.69632 8.6325C6.81207 8.05056 7.09779 7.51601 7.51735 7.09645C7.93691 6.6769 8.47146 6.39117 9.0534 6.27542C9.63534 6.15966 10.2385 6.21907 10.7867 6.44613C11.3349 6.6732 11.8034 7.05772 12.1331 7.55106C12.4627 8.04441 12.6387 8.62443 12.6387 9.21777C12.6387 10.0134 12.3226 10.7765 11.76 11.3391C11.1974 11.9017 10.4343 12.2178 9.63867 12.2178ZM9.63867 7.71777C9.342 7.71777 9.05199 7.80575 8.80532 7.97057C8.55864 8.13539 8.36638 8.36966 8.25285 8.64375C8.13932 8.91784 8.10962 9.21944 8.16749 9.51041C8.22537 9.80138 8.36823 10.0687 8.57801 10.2784C8.78779 10.4882 9.05507 10.6311 9.34604 10.689C9.63701 10.7468 9.93861 10.7171 10.2127 10.6036C10.4868 10.4901 10.7211 10.2978 10.8859 10.0511C11.0507 9.80445 11.1387 9.51445 11.1387 9.21777C11.1387 8.81995 10.9806 8.43842 10.6993 8.15711C10.418 7.87581 10.0365 7.71777 9.63867 7.71777ZM4.38867 6.21777C4.24034 6.21777 4.09533 6.26176 3.97199 6.34417C3.84866 6.42658 3.75253 6.54372 3.69576 6.68076C3.639 6.81781 3.62414 6.96861 3.65308 7.11409C3.68202 7.25958 3.75345 7.39321 3.85834 7.4981C3.96323 7.60299 4.09687 7.67442 4.24235 7.70336C4.38784 7.7323 4.53864 7.71745 4.67568 7.66068C4.81273 7.60392 4.92986 7.50779 5.01227 7.38445C5.09469 7.26111 5.13867 7.11611 5.13867 6.96777C5.13867 6.76886 5.05965 6.5781 4.919 6.43744C4.77835 6.29679 4.58758 6.21777 4.38867 6.21777ZM14.1387 6.96777C14.1387 7.11611 14.1827 7.26111 14.2651 7.38445C14.3475 7.50779 14.4646 7.60392 14.6017 7.66068C14.7387 7.71745 14.8895 7.7323 15.035 7.70336C15.1805 7.67442 15.3141 7.60299 15.419 7.4981C15.5239 7.39321 15.5953 7.25958 15.6243 7.11409C15.6532 6.96861 15.6383 6.81781 15.5816 6.68076C15.5248 6.54372 15.4287 6.42658 15.3053 6.34417C15.182 6.26176 15.037 6.21777 14.8887 6.21777C14.6898 6.21777 14.499 6.29679 14.3583 6.43744C14.2177 6.5781 14.1387 6.76886 14.1387 6.96777ZM4.38867 10.7178C4.24034 10.7178 4.09533 10.7618 3.97199 10.8442C3.84866 10.9266 3.75253 11.0437 3.69576 11.1808C3.639 11.3178 3.62414 11.4686 3.65308 11.6141C3.68202 11.7596 3.75345 11.8932 3.85834 11.9981C3.96323 12.103 4.09687 12.1744 4.24235 12.2034C4.38784 12.2323 4.53864 12.2174 4.67568 12.1607C4.81273 12.1039 4.92986 12.0078 5.01227 11.8845C5.09469 11.7611 5.13867 11.6161 5.13867 11.4678C5.13867 11.2689 5.05965 11.0781 4.919 10.9374C4.77835 10.7968 4.58758 10.7178 4.38867 10.7178ZM14.1387 11.4678C14.1387 11.6161 14.1827 11.7611 14.2651 11.8845C14.3475 12.0078 14.4646 12.1039 14.6017 12.1607C14.7387 12.2174 14.8895 12.2323 15.035 12.2034C15.1805 12.1744 15.3141 12.103 15.419 11.9981C15.5239 11.8932 15.5953 11.7596 15.6243 11.6141C15.6532 11.4686 15.6383 11.3178 15.5816 11.1808C15.5248 11.0437 15.4287 10.9266 15.3053 10.8442C15.182 10.7618 15.037 10.7178 14.8887 10.7178C14.6898 10.7178 14.499 10.7968 14.3583 10.9374C14.2177 11.0781 14.1387 11.2689 14.1387 11.4678Z" fill="white"/>
</g>
<defs>
<clipPath id="clip0_40_9602">
<rect width="18" height="18" fill="white" transform="translate(0.638672 0.217773)"/>
</clipPath>
</defs>
</svg>
