<svg width="19" height="19" viewBox="0 0 19 19" fill="none" xmlns="http://www.w3.org/2000/svg">
<g clip-path="url(#clip0_40_9577)">
<path d="M9.63868 0.5C7.85864 0.5 6.11859 1.02784 4.63854 2.01677C3.1585 3.00571 2.00495 4.41131 1.32376 6.05585C0.642571 7.70038 0.464341 9.50998 0.811608 11.2558C1.15888 13.0016 2.01604 14.6053 3.27471 15.864C4.53339 17.1226 6.13703 17.9798 7.88286 18.3271C9.62869 18.6743 11.4383 18.4961 13.0828 17.8149C14.7274 17.1337 16.133 15.9802 17.1219 14.5001C18.1108 13.0201 18.6387 11.28 18.6387 9.5C18.6361 7.11384 17.6871 4.82616 15.9998 3.13889C14.3125 1.45162 12.0248 0.502581 9.63868 0.5V0.5ZM9.63868 17C8.15532 17 6.70527 16.5601 5.4719 15.736C4.23853 14.9119 3.27724 13.7406 2.70958 12.3701C2.14192 10.9997 1.9934 9.49168 2.28279 8.03682C2.57218 6.58197 3.28648 5.24559 4.33537 4.1967C5.38427 3.14781 6.72064 2.4335 8.1755 2.14411C9.63036 1.85472 11.1384 2.00325 12.5088 2.5709C13.8792 3.13856 15.0506 4.09985 15.8747 5.33322C16.6988 6.56659 17.1387 8.01664 17.1387 9.5C17.1365 11.4885 16.3456 13.3948 14.9396 14.8009C13.5335 16.2069 11.6271 16.9978 9.63868 17Z" fill="white"/>
<path d="M10.1764 4.29664C9.74391 4.21783 9.29938 4.23505 8.87426 4.34707C8.44915 4.45908 8.05385 4.66316 7.71634 4.94486C7.37883 5.22657 7.10736 5.579 6.92113 5.97723C6.7349 6.37547 6.63848 6.80976 6.63867 7.24939C6.63867 7.4483 6.71769 7.63906 6.85834 7.77972C6.99899 7.92037 7.18976 7.99939 7.38867 7.99939C7.58758 7.99939 7.77835 7.92037 7.919 7.77972C8.05965 7.63906 8.13867 7.4483 8.13867 7.24939C8.13848 7.02872 8.18698 6.81073 8.28071 6.61095C8.37445 6.41118 8.5111 6.23455 8.68093 6.09366C8.85076 5.95276 9.04959 5.85108 9.26324 5.79585C9.47688 5.74061 9.70008 5.7332 9.91692 5.77414C10.2132 5.83165 10.4856 5.97618 10.6994 6.18925C10.9131 6.40233 11.0585 6.67429 11.1169 6.97039C11.1759 7.28119 11.1352 7.60269 11.0005 7.88894C10.8658 8.17518 10.644 8.41151 10.3669 8.56414C9.90804 8.82999 9.52886 9.21402 9.26886 9.67624C9.00887 10.1385 8.87758 10.6619 8.88867 11.1921V11.7494C8.88867 11.9483 8.96769 12.1391 9.10834 12.2797C9.24899 12.4204 9.43975 12.4994 9.63867 12.4994C9.83758 12.4994 10.0283 12.4204 10.169 12.2797C10.3096 12.1391 10.3887 11.9483 10.3887 11.7494V11.1921C10.3793 10.9311 10.4388 10.6723 10.5612 10.4416C10.6837 10.2109 10.8647 10.0166 11.0862 9.87814C11.6295 9.57969 12.0671 9.12023 12.3387 8.56294C12.6103 8.00565 12.7026 7.3779 12.6029 6.76603C12.5031 6.15416 12.2163 5.5882 11.7818 5.14601C11.3473 4.70381 10.7864 4.40708 10.1764 4.29664Z" fill="white"/>
<path d="M10.3887 14C10.3887 13.5858 10.0529 13.25 9.63868 13.25C9.22446 13.25 8.88867 13.5858 8.88867 14C8.88867 14.4142 9.22446 14.75 9.63868 14.75C10.0529 14.75 10.3887 14.4142 10.3887 14Z" fill="white"/>
</g>
<defs>
<clipPath id="clip0_40_9577">
<rect width="18" height="18" fill="white" transform="translate(0.638672 0.5)"/>
</clipPath>
</defs>
</svg>
