<svg width="19" height="19" viewBox="0 0 19 19" fill="none" xmlns="http://www.w3.org/2000/svg">
<g clip-path="url(#clip0_40_9588)">
<path d="M17.5558 10.7468L16.1308 5.61976C15.7131 4.11776 14.8053 2.79847 13.5518 1.87161C12.2982 0.944746 10.7708 0.463496 9.21236 0.504356C7.6539 0.545216 6.15382 1.10584 4.95056 2.09712C3.7473 3.08839 2.90992 4.45343 2.57151 5.97526L1.46826 10.9365C1.3464 11.4847 1.34922 12.0533 1.47651 12.6002C1.6038 13.1472 1.85231 13.6586 2.2037 14.0967C2.55509 14.5347 3.00038 14.8883 3.5067 15.1312C4.01301 15.3742 4.56743 15.5003 5.12901 15.5003H5.96451C6.13665 16.348 6.59656 17.1101 7.26632 17.6575C7.93608 18.205 8.7745 18.504 9.63951 18.504C10.5045 18.504 11.3429 18.205 12.0127 17.6575C12.6825 17.1101 13.1424 16.348 13.3145 15.5003H13.943C14.5211 15.5003 15.0914 15.3667 15.6093 15.1098C16.1273 14.853 16.5788 14.4799 16.9286 14.0197C17.2785 13.5594 17.5172 13.0245 17.6261 12.4568C17.735 11.889 17.7112 11.3038 17.5565 10.7468H17.5558ZM9.63951 17.0003C9.17582 16.9983 8.72404 16.8532 8.34599 16.5847C7.96794 16.3162 7.68208 15.9374 7.52751 15.5003H11.7515C11.597 15.9374 11.3111 16.3162 10.933 16.5847C10.555 16.8532 10.1032 16.9983 9.63951 17.0003ZM15.734 13.1115C15.525 13.3888 15.2543 13.6134 14.9432 13.7677C14.6322 13.922 14.2895 14.0016 13.9423 14.0003H5.12901C4.7921 14.0002 4.4595 13.9245 4.15577 13.7787C3.85203 13.6329 3.58492 13.4208 3.37413 13.1579C3.16335 12.8951 3.01428 12.5883 2.93793 12.2601C2.86158 11.932 2.8599 11.5909 2.93301 11.262L4.03551 6.30001C4.30128 5.10466 4.95899 4.03246 5.90411 3.25384C6.84922 2.47523 8.02748 2.03488 9.25159 2.00282C10.4757 1.97075 11.6754 2.34879 12.66 3.07686C13.6446 3.80492 14.3575 4.84122 14.6855 6.02101L16.1105 11.148C16.2047 11.482 16.2197 11.8334 16.1543 12.1743C16.089 12.5151 15.9451 12.836 15.734 13.1115Z" fill="white"/>
</g>
<defs>
<clipPath id="clip0_40_9588">
<rect width="18" height="18" fill="white" transform="translate(0.638672 0.5)"/>
</clipPath>
</defs>
</svg>
