<svg width="19" height="19" viewBox="0 0 19 19" fill="none" xmlns="http://www.w3.org/2000/svg">
<g clip-path="url(#clip0_40_9605)">
<path d="M15.5637 2.81809C15.4715 2.42183 15.2996 2.04847 15.0586 1.72071C14.8175 1.39295 14.5124 1.11764 14.1616 0.911527C13.8108 0.705412 13.4218 0.5728 13.0181 0.521754C12.6145 0.470708 12.2047 0.502295 11.8137 0.614595L10.5207 0.984345C10.1931 1.07848 9.89145 1.24626 9.63867 1.47484C9.3859 1.24626 9.08421 1.07848 8.75667 0.984345L7.46367 0.614595C7.07287 0.50288 6.66345 0.471743 6.26025 0.523074C5.85705 0.574404 5.46849 0.707131 5.11815 0.913198C4.7678 1.11927 4.46299 1.39438 4.2222 1.72183C3.98142 2.04928 3.80968 2.42225 3.71742 2.81809C2.85477 2.97504 2.07439 3.42931 1.51192 4.10194C0.949455 4.77457 0.640469 5.62303 0.638672 6.49985L0.638672 11.7498C0.639863 12.744 1.03533 13.6972 1.73834 14.4002C2.44134 15.1032 3.39448 15.4987 4.38867 15.4998H8.88867V16.9998H6.63867C6.43976 16.9998 6.24899 17.0789 6.10834 17.2195C5.96769 17.3602 5.88867 17.5509 5.88867 17.7498C5.88867 17.9488 5.96769 18.1395 6.10834 18.2802C6.24899 18.4208 6.43976 18.4998 6.63867 18.4998H12.6387C12.8376 18.4998 13.0283 18.4208 13.169 18.2802C13.3097 18.1395 13.3887 17.9488 13.3887 17.7498C13.3887 17.5509 13.3097 17.3602 13.169 17.2195C13.0283 17.0789 12.8376 16.9998 12.6387 16.9998H10.3887V15.4998H14.8887C15.8829 15.4987 16.836 15.1032 17.539 14.4002C18.242 13.6972 18.6375 12.744 18.6387 11.7498V6.49985C18.637 5.62357 18.3286 4.77554 17.7669 4.10298C17.2051 3.43043 16.4256 2.97582 15.5637 2.81809ZM10.3887 3.14809C10.3887 2.98521 10.4418 2.82677 10.5399 2.69673C10.638 2.5667 10.7758 2.47214 10.9324 2.42734L12.2262 2.05759C12.4494 1.99374 12.6845 1.98258 12.9128 2.02502C13.1411 2.06745 13.3564 2.16232 13.5418 2.30213C13.7272 2.44195 13.8776 2.6229 13.9812 2.83074C14.0848 3.03858 14.1387 3.26763 14.1387 3.49984V6.45334C14.1376 6.77881 14.0311 7.09516 13.835 7.35493C13.6389 7.61471 13.3639 7.80389 13.0512 7.8941L10.3887 8.6546V3.14809ZM5.73867 2.29984C5.92372 2.16054 6.13861 2.06614 6.36638 2.02409C6.59416 1.98205 6.82859 1.99352 7.05117 2.05759L8.34492 2.42734C8.50153 2.47214 8.6393 2.5667 8.7374 2.69673C8.8355 2.82677 8.8886 2.98521 8.88867 3.14809V8.6546L6.22617 7.8941C5.91346 7.80389 5.63843 7.61471 5.44235 7.35493C5.24627 7.09516 5.13971 6.77881 5.13867 6.45334V3.49984C5.13791 3.26684 5.19179 3.03691 5.29599 2.82851C5.4002 2.6201 5.55181 2.43904 5.73867 2.29984ZM17.1387 11.7498C17.1387 12.3466 16.9016 12.9189 16.4797 13.3408C16.0577 13.7628 15.4854 13.9998 14.8887 13.9998H4.38867C3.79193 13.9998 3.21964 13.7628 2.79768 13.3408C2.37572 12.9189 2.13867 12.3466 2.13867 11.7498V6.49985C2.14059 6.03615 2.28573 5.58437 2.55424 5.20632C2.82274 4.82827 3.20149 4.54241 3.63867 4.38784V6.45334C3.64051 7.1046 3.85349 7.7377 4.24564 8.25765C4.6378 8.7776 5.188 9.15635 5.81367 9.3371L8.40192 10.0773C9.21081 10.3079 10.068 10.3079 10.8769 10.0773L13.4652 9.3371C14.0906 9.15608 14.6404 8.77721 15.0323 8.25728C15.4242 7.73736 15.6369 7.10441 15.6387 6.45334V4.38784C16.0759 4.54241 16.4546 4.82827 16.7231 5.20632C16.9916 5.58437 17.1367 6.03615 17.1387 6.49985V11.7498Z" fill="white"/>
</g>
<defs>
<clipPath id="clip0_40_9605">
<rect width="18" height="18" fill="white" transform="translate(0.638672 0.5)"/>
</clipPath>
</defs>
</svg>
