<svg width="19" height="19" viewBox="0 0 19 19" fill="none" xmlns="http://www.w3.org/2000/svg">
<g clip-path="url(#clip0_40_9591)">
<path d="M9.63867 6.50098C9.04533 6.50098 8.46531 6.67692 7.97196 7.00657C7.47862 7.33621 7.0941 7.80475 6.86703 8.35293C6.63997 8.9011 6.58056 9.5043 6.69632 10.0862C6.81207 10.6682 7.0978 11.2027 7.51735 11.6223C7.93691 12.0419 8.47146 12.3276 9.0534 12.4433C9.63535 12.5591 10.2385 12.4997 10.7867 12.2726C11.3349 12.0456 11.8034 11.661 12.1331 11.1677C12.4627 10.6743 12.6387 10.0943 12.6387 9.50098C12.6387 8.70533 12.3226 7.94227 11.76 7.37966C11.1974 6.81705 10.4343 6.50098 9.63867 6.50098ZM9.63867 11.001C9.342 11.001 9.05199 10.913 8.80532 10.7482C8.55864 10.5834 8.36639 10.3491 8.25285 10.075C8.13932 9.80091 8.10962 9.49931 8.1675 9.20834C8.22537 8.91737 8.36823 8.6501 8.57801 8.44032C8.78779 8.23054 9.05507 8.08768 9.34604 8.0298C9.63701 7.97192 9.93861 8.00163 10.2127 8.11516C10.4868 8.22869 10.7211 8.42095 10.8859 8.66762C11.0507 8.9143 11.1387 9.2043 11.1387 9.50098C11.1387 9.8988 10.9806 10.2803 10.6993 10.5616C10.418 10.8429 10.0365 11.001 9.63867 11.001Z" fill="white"/>
<path d="M16.609 10.925L16.276 10.733C16.4259 9.91733 16.4259 9.08117 16.276 8.2655L16.609 8.0735C16.8651 7.92576 17.0896 7.72903 17.2696 7.49455C17.4497 7.26006 17.5818 6.9924 17.6584 6.70686C17.735 6.42132 17.7546 6.12349 17.7161 5.83037C17.6776 5.53725 17.5818 5.25458 17.434 4.9985C17.2863 4.74242 17.0896 4.51795 16.8551 4.3379C16.6206 4.15785 16.3529 4.02575 16.0674 3.94915C15.7818 3.87254 15.484 3.85292 15.1909 3.89142C14.8978 3.92991 14.6151 4.02576 14.359 4.1735L14.0253 4.36625C13.3949 3.82769 12.6705 3.41019 11.8885 3.13475V2.75C11.8885 2.15326 11.6515 1.58097 11.2295 1.15901C10.8076 0.737053 10.2353 0.5 9.63852 0.5C9.04178 0.5 8.46949 0.737053 8.04753 1.15901C7.62557 1.58097 7.38852 2.15326 7.38852 2.75V3.13475C6.60656 3.41118 5.88241 3.8297 5.25252 4.36925L4.91727 4.175C4.4001 3.87663 3.78558 3.79593 3.20891 3.95065C2.63223 4.10536 2.14064 4.48283 1.84227 5C1.5439 5.51717 1.4632 6.13169 1.61792 6.70836C1.77264 7.28504 2.1501 7.77663 2.66727 8.075L3.00027 8.267C2.85035 9.08267 2.85035 9.91883 3.00027 10.7345L2.66727 10.9265C2.1501 11.2249 1.77264 11.7165 1.61792 12.2931C1.4632 12.8698 1.5439 13.4843 1.84227 14.0015C2.14064 14.5187 2.63223 14.8961 3.20891 15.0509C3.78558 15.2056 4.4001 15.1249 4.91727 14.8265L5.25102 14.6337C5.88159 15.1724 6.60626 15.5899 7.38852 15.8652V16.25C7.38852 16.8467 7.62557 17.419 8.04753 17.841C8.46949 18.2629 9.04178 18.5 9.63852 18.5C10.2353 18.5 10.8076 18.2629 11.2295 17.841C11.6515 17.419 11.8885 16.8467 11.8885 16.25V15.8652C12.6705 15.5888 13.3946 15.1703 14.0245 14.6307L14.3598 14.8243C14.8769 15.1226 15.4915 15.2033 16.0681 15.0486C16.6448 14.8939 17.1364 14.5164 17.4348 13.9993C17.7331 13.4821 17.8138 12.8676 17.6591 12.2909C17.5044 11.7142 17.1269 11.2226 16.6098 10.9242L16.609 10.925ZM14.698 8.093C14.952 9.0133 14.952 9.9852 14.698 10.9055C14.6537 11.0657 14.6638 11.2361 14.7268 11.3899C14.7898 11.5437 14.9021 11.6722 15.046 11.7552L15.859 12.2248C16.0314 12.3242 16.1572 12.4881 16.2087 12.6803C16.2603 12.8725 16.2334 13.0773 16.1339 13.2496C16.0344 13.422 15.8706 13.5478 15.6784 13.5993C15.4862 13.6509 15.2814 13.624 15.109 13.5245L14.2945 13.0535C14.1504 12.9701 13.9827 12.9369 13.8177 12.9593C13.6527 12.9817 13.4999 13.0584 13.3833 13.1772C12.7157 13.8587 11.8747 14.345 10.951 14.5835C10.7898 14.625 10.6469 14.7189 10.545 14.8504C10.443 14.982 10.3877 15.1438 10.3878 15.3102V16.25C10.3878 16.4489 10.3088 16.6397 10.1681 16.7803C10.0274 16.921 9.83668 17 9.63777 17C9.43886 17 9.24809 16.921 9.10744 16.7803C8.96679 16.6397 8.88777 16.4489 8.88777 16.25V15.311C8.88785 15.1445 8.83255 14.9828 8.73057 14.8512C8.6286 14.7196 8.48575 14.6257 8.32452 14.5842C7.40078 14.3448 6.56002 13.8575 5.89302 13.175C5.77641 13.0561 5.62357 12.9795 5.45859 12.9571C5.2936 12.9347 5.12585 12.9678 4.98177 13.0513L4.16877 13.5215C4.08344 13.5715 3.98906 13.6042 3.89106 13.6176C3.79307 13.631 3.69339 13.6249 3.59776 13.5996C3.50214 13.5743 3.41246 13.5303 3.33389 13.4703C3.25532 13.4102 3.1894 13.3352 3.13995 13.2495C3.09049 13.1638 3.05847 13.0692 3.04572 12.9712C3.03297 12.8731 3.03975 12.7734 3.06566 12.678C3.09158 12.5825 3.13612 12.4931 3.19672 12.415C3.25732 12.3368 3.33279 12.2714 3.41877 12.2225L4.23177 11.753C4.37573 11.6699 4.48803 11.5414 4.55102 11.3876C4.614 11.2338 4.62412 11.0634 4.57977 10.9032C4.32579 9.98295 4.32579 9.01105 4.57977 8.09075C4.62332 7.93091 4.61272 7.76115 4.54963 7.60797C4.48654 7.45479 4.37451 7.3268 4.23102 7.244L3.41802 6.7745C3.24566 6.67504 3.11987 6.51119 3.06833 6.31899C3.01678 6.12679 3.04369 5.92198 3.14315 5.74962C3.2426 5.57727 3.40645 5.45148 3.59865 5.39993C3.79086 5.34838 3.99566 5.37529 4.16802 5.47475L4.98252 5.94575C5.12621 6.02939 5.29361 6.06291 5.45842 6.04105C5.62323 6.01919 5.7761 5.9432 5.89302 5.825C6.56059 5.14351 7.40159 4.65727 8.32527 4.41875C8.48699 4.37717 8.63022 4.28281 8.73225 4.15063C8.83427 4.01844 8.88927 3.85598 8.88852 3.689V2.75C8.88852 2.55109 8.96754 2.36032 9.10819 2.21967C9.24884 2.07902 9.43961 2 9.63852 2C9.83743 2 10.0282 2.07902 10.1689 2.21967C10.3095 2.36032 10.3885 2.55109 10.3885 2.75V3.689C10.3884 3.85547 10.4437 4.01723 10.5457 4.14881C10.6477 4.28039 10.7905 4.3743 10.9518 4.41575C11.8758 4.65511 12.7168 5.14241 13.384 5.825C13.5006 5.94385 13.6535 6.02052 13.8185 6.04292C13.9834 6.06533 14.1512 6.0322 14.2953 5.94875L15.1083 5.4785C15.1936 5.42848 15.288 5.39583 15.386 5.38243C15.484 5.36903 15.5837 5.37514 15.6793 5.40043C15.7749 5.42571 15.8646 5.46965 15.9432 5.52974C16.0217 5.58982 16.0876 5.66485 16.1371 5.7505C16.1866 5.83616 16.2186 5.93076 16.2313 6.02884C16.2441 6.12693 16.2373 6.22656 16.2114 6.32202C16.1855 6.41747 16.1409 6.50686 16.0803 6.58503C16.0197 6.6632 15.9443 6.72861 15.8583 6.7775L15.0453 7.247C14.9021 7.33003 14.7903 7.45811 14.7275 7.61127C14.6647 7.76443 14.6543 7.93407 14.698 8.09375V8.093Z" fill="white"/>
</g>
<defs>
<clipPath id="clip0_40_9591">
<rect width="18" height="18" fill="white" transform="translate(0.638672 0.5)"/>
</clipPath>
</defs>
</svg>
