<svg width="19" height="19" viewBox="0 0 19 19" fill="none" xmlns="http://www.w3.org/2000/svg">
<g clip-path="url(#clip0_40_9581)">
<path d="M9.63867 9.5C10.5287 9.5 11.3987 9.23608 12.1387 8.74162C12.8788 8.24715 13.4555 7.54434 13.7961 6.72208C14.1367 5.89981 14.2258 4.99501 14.0522 4.1221C13.8786 3.24918 13.45 2.44736 12.8207 1.81802C12.1913 1.18869 11.3895 0.760102 10.5166 0.586468C9.64366 0.412835 8.73886 0.50195 7.9166 0.842544C7.09433 1.18314 6.39153 1.75991 5.89706 2.49994C5.40259 3.23996 5.13867 4.10999 5.13867 5C5.13986 6.19311 5.61435 7.33701 6.45801 8.18067C7.30166 9.02432 8.44556 9.49881 9.63867 9.5ZM9.63867 2C10.232 2 10.812 2.17595 11.3054 2.50559C11.7987 2.83524 12.1832 3.30377 12.4103 3.85195C12.6374 4.40013 12.6968 5.00333 12.581 5.58527C12.4653 6.16722 12.1796 6.70177 11.76 7.12132C11.3404 7.54088 10.8059 7.8266 10.2239 7.94236C9.642 8.05811 9.0388 7.9987 8.49062 7.77164C7.94244 7.54458 7.47391 7.16006 7.14426 6.66671C6.81462 6.17337 6.63867 5.59335 6.63867 5C6.63867 4.20435 6.95474 3.44129 7.51735 2.87868C8.07996 2.31607 8.84302 2 9.63867 2Z" fill="white"/>
<path d="M9.63867 11.001C7.84907 11.003 6.13333 11.7148 4.86789 12.9802C3.60245 14.2456 2.89066 15.9614 2.88867 17.751C2.88867 17.9499 2.96769 18.1407 3.10834 18.2813C3.24899 18.422 3.43976 18.501 3.63867 18.501C3.83758 18.501 4.02835 18.422 4.169 18.2813C4.30965 18.1407 4.38867 17.9499 4.38867 17.751C4.38867 16.3586 4.9418 15.0232 5.92636 14.0387C6.91093 13.0541 8.24629 12.501 9.63867 12.501C11.0311 12.501 12.3664 13.0541 13.351 14.0387C14.3355 15.0232 14.8887 16.3586 14.8887 17.751C14.8887 17.9499 14.9677 18.1407 15.1083 18.2813C15.249 18.422 15.4398 18.501 15.6387 18.501C15.8376 18.501 16.0283 18.422 16.169 18.2813C16.3097 18.1407 16.3887 17.9499 16.3887 17.751C16.3867 15.9614 15.6749 14.2456 14.4095 12.9802C13.144 11.7148 11.4283 11.003 9.63867 11.001Z" fill="white"/>
</g>
<defs>
<clipPath id="clip0_40_9581">
<rect width="18" height="18" fill="white" transform="translate(0.638672 0.5)"/>
</clipPath>
</defs>
</svg>
